<svg width="20" height="20" viewBox="0 0 20 20" fill="none" xmlns="http://www.w3.org/2000/svg">
<path d="M18.5077 16.1219L12.3858 9.99999L18.5077 3.87812C19.1686 3.21718 19.1686 2.15312 18.5077 1.49218C17.8467 0.831247 16.7827 0.831247 16.1217 1.49218L9.99985 7.61405L3.87798 1.49218C3.21704 0.831247 2.15298 0.831247 1.49204 1.49218C0.831104 2.15312 0.831104 3.21718 1.49204 3.87812L7.61392 9.99999L1.49204 16.1219C0.831104 16.7828 0.831104 17.8469 1.49204 18.5078C2.15298 19.1687 3.21704 19.1687 3.87798 18.5078L9.99985 12.3859L16.1217 18.5078C16.7827 19.1687 17.8467 19.1687 18.5077 18.5078C19.1639 17.8469 19.1639 16.7781 18.5077 16.1219Z" fill="url(#paint0_linear)"/>
<defs>
<linearGradient id="paint0_linear" x1="9.99985" y1="0.996481" x2="10.0004" y2="19.0035" gradientUnits="userSpaceOnUse">
<stop stop-color="#DA4453"/>
<stop offset="0.987061" stop-color="#89216B"/>
</linearGradient>
</defs>
</svg>
