<svg width="24" height="23" viewBox="0 0 24 23" fill="none" xmlns="http://www.w3.org/2000/svg">
<path d="M19.0026 16.828C17.3525 16.828 16.0101 18.1705 16.0101 19.8205C16.0101 21.4706 17.3526 22.813 19.0026 22.813C20.6527 22.813 21.9952 21.4706 21.9952 19.8205C21.9952 18.1705 20.6527 16.828 19.0026 16.828ZM19.0026 21.0175C18.3425 21.0175 17.8056 20.4807 17.8056 19.8205C17.8056 19.1604 18.3425 18.6235 19.0026 18.6235C19.6628 18.6235 20.1996 19.1604 20.1996 19.8205C20.1996 20.4807 19.6628 21.0175 19.0026 21.0175Z" fill="#171717"/>
<path d="M23.8092 5.26215C23.6393 5.0446 23.3786 4.91771 23.1024 4.91771H5.5416L4.73361 1.53706C4.63695 1.13309 4.27573 0.8479 3.86037 0.8479H0.897756C0.401909 0.847854 0 1.24976 0 1.74561C0 2.24146 0.401909 2.64336 0.897756 2.64336H3.15175L6.06946 14.8517C6.16612 15.256 6.52734 15.5409 6.9427 15.5409H20.9179C21.3306 15.5409 21.6902 15.2596 21.7893 14.8592L23.9738 6.03118C24.0399 5.7631 23.9792 5.47969 23.8092 5.26215ZM20.2155 13.7454H7.65131L5.97069 6.71322H21.9553L20.2155 13.7454Z" fill="#171717"/>
<path d="M8.13967 16.828C6.48957 16.828 5.14716 18.1705 5.14716 19.8205C5.14716 21.4706 6.48962 22.813 8.13967 22.813C9.78973 22.813 11.1322 21.4706 11.1322 19.8205C11.1322 18.1705 9.78973 16.828 8.13967 16.828ZM8.13967 21.0175C7.47953 21.0175 6.94267 20.4807 6.94267 19.8205C6.94267 19.1604 7.47953 18.6235 8.13967 18.6235C8.79982 18.6235 9.33668 19.1604 9.33668 19.8205C9.33668 20.4807 8.79982 21.0175 8.13967 21.0175Z" fill="#171717"/>
</svg>
