<svg width="40" height="40" viewBox="0 0 40 40" fill="none" xmlns="http://www.w3.org/2000/svg">
<g clip-path="url(#clip0)">
<path d="M3.59229 22.3689C3.42474 22.6631 3.33563 22.9951 3.3335 23.3336C3.33533 24.2619 3.9762 25.067 4.88074 25.2773C5.41937 26.9093 6.948 28.0089 8.66675 28C12.7888 28 13.2984 24.3501 13.635 21.9347C13.6814 21.6026 13.7263 21.2807 13.7778 20.9764C13.9417 20.0197 14.7761 19.3236 15.7468 19.3333H17.9999V20.3917C16.4582 20.938 15.4029 22.3659 15.3333 24.0001C15.4029 25.6343 16.4582 27.0625 17.9999 27.6088V29.3333H12.0002C11.6318 29.3333 11.3334 29.6321 11.3334 30.0002C11.337 32.7519 12.8803 35.2702 15.3306 36.5227C14.7138 37.0744 14.5026 37.9497 14.7993 38.7221C15.0959 39.4948 15.8393 40.0032 16.6666 40.0002H23.3335C24.1608 40.0032 24.9042 39.4948 25.2009 38.7221C25.4978 37.9497 25.2863 37.0744 24.6696 36.5227C27.1198 35.2702 28.6631 32.7519 28.6667 30.0002C28.6667 29.6321 28.3683 29.3333 27.9999 29.3333H22.0002V27.6088C23.5419 27.0625 24.5972 25.6343 24.6668 24.0001C24.5972 22.3659 23.5419 20.938 22.0002 20.3917V19.3333H24.2533C25.2244 19.3236 26.059 20.0203 26.2229 20.9776C26.2739 21.2807 26.3187 21.6026 26.3651 21.9347C26.7017 24.3501 27.2114 28 31.3334 28C33.0521 28.0089 34.5811 26.9093 35.1197 25.2773C36.0239 25.067 36.6648 24.2619 36.6666 23.3336C36.6645 22.9951 36.5754 22.6631 36.4078 22.3689C38.5547 21.6258 39.9961 19.6053 40.0001 17.3335V16.6667C40.0001 16.2987 39.7016 16.0002 39.3333 16.0002H37.3267C37.3273 15.9697 37.3334 15.9373 37.3334 15.9068C37.3334 14.6327 36.5342 12.758 35.8646 11.4122C35.6418 10.9541 35.1765 10.6639 34.6671 10.6654H34.6668C34.1581 10.6639 33.6933 10.9529 33.4699 11.4101C32.7991 12.7589 32.0002 14.6339 32.0002 15.9068C32.0002 15.937 32.006 15.97 32.0066 16.0002H30.0001C29.632 16.0002 29.3333 16.2987 29.3333 16.6667V17.3335C29.3372 19.6053 30.7786 21.6258 32.9255 22.3689C32.6572 22.8386 32.5944 23.398 32.7515 23.9153C32.9087 24.4325 33.2719 24.8625 33.7559 25.1036C33.6277 25.3944 33.4476 25.6596 33.2245 25.8861C32.7225 26.3866 32.0423 26.6673 31.3334 26.6667C28.5776 26.6667 28.1 24.72 27.6856 21.7503C27.6374 21.4055 27.5904 21.0704 27.5376 20.7573C27.2678 19.1566 25.8762 17.9887 24.2533 18H22.0002V10.667C22.6646 10.6691 23.2865 10.3398 23.6585 9.78928C24.0305 9.23843 24.1038 8.53867 23.8535 7.92282C24.4779 7.75742 24.9833 7.29874 25.2085 6.69327C25.4337 6.0878 25.351 5.41061 24.9866 4.87717C26.0218 4.28848 26.6627 3.19077 26.6666 2.00027V0.666962C26.6666 0.298614 26.3682 0.000152588 26.0001 0.000152588H14C13.632 0.000152588 13.3335 0.298614 13.3335 0.666962V2.00027C13.3375 3.19077 13.9783 4.28848 15.0135 4.87717C14.6491 5.41061 14.5664 6.0878 14.7916 6.69327C15.0168 7.29904 15.5222 7.75742 16.1466 7.92313C15.8964 8.53867 15.9693 9.23874 16.3413 9.78928C16.7133 10.3401 17.3356 10.6691 17.9999 10.667V18H15.7468C14.1242 17.9881 12.7329 19.1557 12.4628 20.7558C12.4094 21.0704 12.3627 21.4055 12.3145 21.7503C11.9001 24.72 11.4225 26.6667 8.66675 26.6667C7.95905 26.6676 7.28003 26.3878 6.77802 25.8888C6.55402 25.6615 6.37335 25.3957 6.24426 25.1039C6.72827 24.8625 7.09143 24.4328 7.2486 23.9153C7.40576 23.398 7.3429 22.8386 7.07465 22.3689C9.22156 21.6258 10.6629 19.6053 10.6669 17.3335V16.6667C10.6669 16.2987 10.3684 16.0002 10.0001 16.0002H7.99353C7.99384 15.9697 7.99994 15.937 7.99994 15.9068C7.99994 14.6327 7.20099 12.758 6.53143 11.4122C6.30743 10.9557 5.84326 10.6657 5.33453 10.6654C4.82581 10.6648 4.36133 10.9535 4.13641 11.4101C3.46594 12.758 2.66669 14.6327 2.66669 15.9068C2.66669 15.937 2.67279 15.97 2.6734 16.0002H0.66687C0.298523 16.0002 6.10352e-05 16.2987 6.10352e-05 16.6667V17.3335C0.00402832 19.6053 1.44537 21.6258 3.59229 22.3689V22.3689ZM34.6696 12.0036C35.358 13.2079 35.8097 14.5329 36.0001 15.9068C36.0001 15.9377 35.9998 15.9691 35.9992 16.0002H33.3344C33.3338 15.9688 33.3335 15.9377 33.3335 15.9068C33.5239 14.532 33.9777 13.2069 34.6696 12.0036V12.0036ZM30.6669 17.3335H38.6667C38.6667 19.5427 36.876 21.3335 34.6668 21.3335C32.4576 21.3335 30.6669 19.5427 30.6669 17.3335V17.3335ZM35.3333 23.3336C35.3333 23.7016 35.0349 24.0001 34.6668 24.0001C34.2985 24.0001 34 23.7016 34 23.3336C34 22.9652 34.2985 22.6668 34.6668 22.6668C35.0349 22.6674 35.333 22.9655 35.3333 23.3336ZM23.3335 37.3335C23.7015 37.3335 24 37.632 24 38C24 38.3684 23.7015 38.6668 23.3335 38.6668H16.6666C16.2986 38.6668 16.0001 38.3684 16.0001 38C16.0001 37.632 16.2986 37.3335 16.6666 37.3335H23.3335ZM21.3334 36.0002H18.6667C15.6125 35.9962 13.0469 33.7016 12.7036 30.667H27.2968C26.9535 33.7019 24.3879 35.9966 21.3334 36.0002V36.0002ZM20.6669 29.3333H19.3333V27.9546C19.7758 28.0153 20.2244 28.0153 20.6669 27.9546V29.3333ZM23.3335 24.0001C23.3335 25.4704 21.8378 26.6667 20.0001 26.6667C18.1623 26.6667 16.6666 25.4704 16.6666 24.0001C16.6666 22.5298 18.1623 21.3335 20.0001 21.3335C21.8378 21.3335 23.3335 22.5298 23.3335 24.0001ZM14.6668 1.33347H25.3333V2.00027C25.3321 3.1041 24.4373 3.99887 23.3335 4.00009H16.6666C15.5628 3.99887 14.668 3.1041 14.6668 2.00027V1.33347ZM16.6666 5.3334H23.3335C23.7015 5.3334 24 5.63187 24 6.00021C24 6.36826 23.7015 6.66672 23.3335 6.66672H16.6666C16.2986 6.66672 16.0001 6.36826 16.0001 6.00021C16.0001 5.63187 16.2986 5.3334 16.6666 5.3334ZM17.3334 8.66684C17.3337 8.2988 17.6322 8.00064 17.9999 8.00003H22.0002C22.3682 8.00003 22.6667 8.29849 22.6667 8.66684C22.6667 9.03488 22.3682 9.33334 22.0002 9.33334H17.9999C17.6322 9.33304 17.3337 9.03488 17.3334 8.66684V8.66684ZM20.6669 10.667V20.0456C20.2244 19.9849 19.7758 19.9849 19.3333 20.0456V10.667H20.6669ZM6.00012 23.3336C6.00012 23.7016 5.70166 24.0001 5.33331 24.0001C4.96527 24.0001 4.66681 23.7016 4.66681 23.3336C4.66681 22.9652 4.96527 22.6668 5.33331 22.6668C5.70135 22.6674 5.99951 22.9655 6.00012 23.3336ZM5.33636 12.0036C6.02484 13.2079 6.4762 14.5329 6.66663 15.9068C6.66663 15.9377 6.66632 15.9691 6.66571 16.0002H4.00092C4.00031 15.9688 4 15.9377 4 15.9068C4.19043 14.532 4.64423 13.2066 5.33636 12.0036ZM3.3866 17.3335H9.33325C9.33325 19.5427 7.54248 21.3335 5.33331 21.3335C3.12415 21.3335 1.33337 19.5427 1.33337 17.3335H3.3866Z" fill="#171717"/>
<path d="M18.6667 31.3335C18.2984 31.3335 17.9999 31.6319 17.9999 32.0003C17.9999 32.3683 18.2984 32.6668 18.6667 32.6668H21.3334C21.7017 32.6668 22.0002 32.3683 22.0002 32.0003C22.0002 31.6319 21.7017 31.3335 21.3334 31.3335H18.6667Z" fill="#171717"/>
<path d="M4.66681 19.3333H6.00012C6.36816 19.3333 6.66663 19.0349 6.66663 18.6668C6.66663 18.2985 6.36816 18 6.00012 18H4.66681C4.29846 18 4 18.2985 4 18.6668C4 19.0349 4.29846 19.3333 4.66681 19.3333Z" fill="#171717"/>
<path d="M36.0001 18.6668C36.0001 18.2985 35.7017 18 35.3333 18H34C33.632 18 33.3335 18.2985 33.3335 18.6668C33.3335 19.0349 33.632 19.3333 34 19.3333H35.3333C35.7017 19.3333 36.0001 19.0349 36.0001 18.6668V18.6668Z" fill="#171717"/>
</g>
<defs>
<clipPath id="clip0">
<rect width="40" height="40" fill="white" transform="translate(6.10352e-05 0.000152588)"/>
</clipPath>
</defs>
</svg>
