<svg width="25" height="22" viewBox="0 0 25 22" fill="none" xmlns="http://www.w3.org/2000/svg">
<path d="M24.9607 13.2141C24.9605 13.1936 24.9596 13.1729 24.9576 13.1524C24.9572 13.1477 24.9565 13.1433 24.9561 13.1385C24.9539 13.1198 24.9512 13.1013 24.9475 13.0827C24.9468 13.0786 24.9459 13.0746 24.945 13.0704C24.9413 13.0537 24.9369 13.0371 24.9321 13.0206C24.9303 13.0142 24.9283 13.0076 24.9263 13.0012C24.921 12.9849 24.9151 12.9686 24.9085 12.9525L24.9069 12.9483L24.9047 12.9431L20.6898 2.64001L20.6889 2.63799C20.6857 2.6303 20.6823 2.62316 20.6788 2.61565C20.6735 2.60412 20.6682 2.59258 20.6623 2.58141C20.6585 2.57409 20.6544 2.56695 20.6504 2.55981C20.6436 2.54791 20.6365 2.53637 20.6292 2.52483C20.6257 2.51934 20.622 2.51366 20.6184 2.50817C20.6068 2.49133 20.5947 2.47503 20.5819 2.45947L20.5797 2.4569C20.5673 2.44207 20.5543 2.42779 20.5407 2.41406C20.5365 2.40984 20.5323 2.40582 20.5281 2.4016C20.5173 2.39117 20.5063 2.38128 20.495 2.37158C20.49 2.36736 20.4852 2.36315 20.4803 2.35931C20.4668 2.34832 20.4528 2.33788 20.4386 2.328C20.436 2.32617 20.4334 2.32415 20.4307 2.32232C20.4146 2.31152 20.3979 2.30163 20.3811 2.29211C20.3741 2.28826 20.3671 2.28478 20.3602 2.2813C20.349 2.27563 20.3377 2.27014 20.3263 2.26501C20.3186 2.26153 20.3109 2.25805 20.3031 2.25494C20.2897 2.24944 20.276 2.24468 20.2622 2.23992C20.2553 2.23773 20.2485 2.23516 20.2415 2.23315C20.2241 2.22784 20.2064 2.22326 20.1884 2.21942C20.1813 2.21795 20.174 2.21667 20.1666 2.21539C20.1524 2.21264 20.1381 2.21044 20.1234 2.20861C20.1167 2.20788 20.1099 2.20696 20.1031 2.20641C20.0819 2.2044 20.0606 2.20312 20.0392 2.20312H15.6844C15.3715 0.991513 14.269 0.09375 12.9611 0.09375C11.653 0.09375 10.5505 0.991513 10.2376 2.20312H5.88299C5.86138 2.20312 5.84014 2.2044 5.8189 2.20641C5.81194 2.20696 5.80517 2.20788 5.79839 2.20861C5.78393 2.21044 5.76946 2.21264 5.75518 2.2152C5.74785 2.21667 5.74071 2.21777 5.73339 2.21942C5.71563 2.22326 5.69787 2.22784 5.68047 2.23297C5.67333 2.23516 5.66655 2.23754 5.6596 2.23992C5.64586 2.2445 5.63231 2.24944 5.61895 2.25475C5.61107 2.25805 5.60338 2.26135 5.59569 2.26483C5.58416 2.26995 5.57299 2.27545 5.56182 2.28112C5.55486 2.28478 5.54772 2.28826 5.54094 2.29211C5.52392 2.30163 5.50725 2.31152 5.49114 2.32232C5.48858 2.32415 5.48601 2.32617 5.48327 2.328C5.46898 2.33788 5.45507 2.34832 5.44152 2.35912C5.43657 2.36315 5.43181 2.36736 5.42705 2.37139C5.4157 2.3811 5.40471 2.39117 5.39391 2.4016C5.3897 2.40563 5.38531 2.40966 5.38128 2.41387C5.36773 2.42779 5.35473 2.44189 5.34228 2.4569L5.34008 2.45928C5.32726 2.47503 5.31518 2.49133 5.30364 2.50817C5.2998 2.51348 5.29632 2.51916 5.29265 2.52483C5.28533 2.53619 5.27819 2.54791 5.2716 2.55962C5.26739 2.56677 5.26354 2.57391 5.2597 2.58123C5.25384 2.59258 5.24834 2.60412 5.24303 2.61565C5.23974 2.62298 5.23607 2.6303 5.23296 2.63781L5.23205 2.64001L1.01715 12.943L1.01514 12.9481L1.01331 12.9525C1.00671 12.9684 1.00104 12.9849 0.995727 13.0012C0.99353 13.0076 0.991699 13.0142 0.989685 13.0206C0.984924 13.0371 0.98053 13.0537 0.977051 13.0704C0.976135 13.0744 0.97522 13.0786 0.974304 13.0827C0.970825 13.1012 0.968079 13.1198 0.965881 13.1385C0.965332 13.1431 0.964783 13.1477 0.964233 13.1522C0.962402 13.1729 0.961304 13.1936 0.961121 13.2141L0.960938 13.2187C0.960938 15.6741 3.16882 17.6718 5.8828 17.6718C8.59679 17.6718 10.8047 15.6741 10.8047 13.2187L10.8045 13.2141C10.8043 13.1936 10.8032 13.1729 10.8014 13.1522C10.8008 13.1477 10.8003 13.1431 10.7997 13.1385C10.7975 13.1198 10.7948 13.1012 10.7913 13.0827C10.7904 13.0786 10.7895 13.0744 10.7886 13.0704C10.7851 13.0537 10.7807 13.0371 10.7759 13.0206C10.7739 13.0142 10.7721 13.0076 10.7699 13.0012C10.7646 12.9849 10.7589 12.9686 10.7523 12.9525L10.7505 12.9481L10.7485 12.943L6.93016 3.60936H10.2374C10.4925 4.5963 11.271 5.37486 12.2578 5.62974V20.1093H9.67967C9.29149 20.1093 8.97655 20.4241 8.97655 20.8124C8.97655 21.2008 9.29149 21.5156 9.67967 21.5156H16.2422C16.6305 21.5156 16.9453 21.2008 16.9453 20.8124C16.9453 20.4241 16.6305 20.1093 16.2422 20.1093H13.664V5.62974C14.651 5.37468 15.4295 4.5963 15.6844 3.60936H18.9917L15.1734 12.9431L15.1712 12.9483L15.1695 12.9525C15.1629 12.9686 15.1573 12.9849 15.1518 13.0014C15.1497 13.0078 15.1479 13.0142 15.1459 13.0206C15.1411 13.0373 15.1367 13.0537 15.1331 13.0706C15.1322 13.0746 15.1314 13.0786 15.1305 13.0828C15.1269 13.1013 15.1241 13.12 15.1221 13.1387C15.1216 13.1433 15.1208 13.1478 15.1205 13.1524C15.1184 13.1729 15.1175 13.1936 15.1173 13.2143L15.1172 13.2187C15.1172 15.6741 17.325 17.6718 20.039 17.6718C22.7528 17.6718 24.9609 15.6741 24.9609 13.2187L24.9607 13.2141ZM5.88299 16.2656C4.2235 16.2656 2.82898 15.2642 2.46185 13.9218H9.30412C8.93681 15.2642 7.54228 16.2656 5.88299 16.2656ZM2.71142 12.5156L5.88299 4.76329L9.05436 12.5156H2.71142ZM12.9611 4.31249C12.1856 4.31249 11.5548 3.68169 11.5548 2.90624C11.5548 2.13079 12.1856 1.5 12.9611 1.5C13.7364 1.5 14.3673 2.13079 14.3673 2.90624C14.3673 3.68169 13.7364 4.31249 12.9611 4.31249ZM20.0392 4.76329L23.2106 12.5156H16.8676L20.0392 4.76329ZM20.0392 16.2656C18.3797 16.2656 16.9852 15.2642 16.6181 13.9218H23.4603C23.093 15.2642 21.6985 16.2656 20.0392 16.2656Z" fill="#171717"/>
</svg>
