<svg width="38" height="40" viewBox="0 0 38 40" fill="none" xmlns="http://www.w3.org/2000/svg">
<path d="M20.7976 32.69V31.2472C20.7976 30.5997 20.2727 30.0749 19.6253 30.0749C18.9779 30.0749 18.453 30.5997 18.453 31.2472V32.5758H15.3696L7.82819 24.2801C8.42918 23.2047 8.44927 21.8994 7.88047 20.8056L15.335 13.0878C15.5136 14.5443 16.0868 15.9673 17.0646 17.1894L20.2324 21.1491C20.6682 21.6939 21.4825 21.74 21.9767 21.2457L32.5871 10.6354C33.0806 10.1421 33.0362 9.32762 32.4905 8.89114L28.5307 5.7233C26.5139 4.10983 23.9505 3.59817 21.592 4.14446L18.0209 0.367106C17.5682 -0.111814 16.8075 -0.124006 16.3401 0.343504L11.6846 4.99906C11.2163 5.46719 11.2299 6.22785 11.7082 6.67988L15.1352 9.91978L6.19464 19.1762C3.78457 18.0279 0.94693 19.7837 0.94693 22.4941C0.94693 25.1389 3.67563 26.9213 6.09383 25.8576L12.5365 32.9447C10.2101 33.7979 8.44958 36.0914 8.44958 38.828C8.44958 39.4754 8.97446 40.0003 9.62187 40.0003H24.6272C25.2746 40.0003 25.7995 39.4754 25.7995 38.828C25.7994 35.7807 23.6115 33.2414 20.7976 32.69V32.69ZM27.0661 7.5541L30.0031 9.90376L21.245 18.6618L18.8954 15.7248C17.6342 14.1482 17.3177 12.1028 17.9052 10.2957C17.913 10.2747 17.919 10.2532 17.9256 10.2318C19.2089 6.43409 23.9021 5.02297 27.0661 7.5541V7.5541ZM17.1455 2.85392L19.2561 5.08659C18.1047 5.77488 17.1326 6.73584 16.4277 7.91517L14.1949 5.80434L17.1455 2.85392ZM3.29143 22.4941C3.29143 21.7615 3.88742 21.1655 4.62002 21.1655C5.35263 21.1655 5.94862 21.7615 5.94862 22.4941C5.94862 23.2267 5.35263 23.8227 4.62002 23.8227C3.88742 23.8227 3.29143 23.2267 3.29143 22.4941ZM10.9701 37.6557C11.4592 36.0718 12.912 34.9203 14.6236 34.9203H19.6253C21.3369 34.9203 22.7897 36.0718 23.2788 37.6557H10.9701Z" fill="#171717"/>
<path d="M31.0831 17.9141C30.6253 17.4563 29.883 17.4563 29.4252 17.9141C28.9674 18.3718 28.9674 19.1141 29.4252 19.5719L31.9261 22.0728C32.155 22.3017 32.455 22.4162 32.755 22.4162C33.7901 22.4162 34.3245 21.1555 33.5839 20.415L31.0831 17.9141Z" fill="#171717"/>
<path d="M35.881 13.8192H32.7549C32.1075 13.8192 31.5826 14.3441 31.5826 14.9915C31.5826 15.6389 32.1075 16.1638 32.7549 16.1638H35.881C36.5284 16.1638 37.0533 15.6389 37.0533 14.9915C37.0533 14.3441 36.5285 13.8192 35.881 13.8192Z" fill="#171717"/>
<path d="M26.5027 20.0714C25.8553 20.0714 25.3304 20.5962 25.3304 21.2437V24.3698C25.3304 25.0172 25.8553 25.5421 26.5027 25.5421C27.1501 25.5421 27.675 25.0172 27.675 24.3698V21.2437C27.675 20.5962 27.1502 20.0714 26.5027 20.0714Z" fill="#171717"/>
</svg>
