<svg width="40" height="40" viewBox="0 0 40 40" fill="none" xmlns="http://www.w3.org/2000/svg">
<path d="M36.2145 1.26679H32.8161C31.6031 1.26862 30.6205 2.25143 30.6184 3.46445V5.12252H20.9635C16.8676 5.12877 13.4799 8.31392 13.2213 12.4017H10.6169C10.2491 12.4017 9.95097 12.6996 9.95097 13.0676V15.1017H9.26529C9.01816 15.1017 8.7916 15.2381 8.67623 15.4569L2.95826 26.2939C2.84914 26.5004 2.85617 26.7488 2.97675 26.9488C3.09732 27.1488 3.31347 27.2707 3.54706 27.2707H10.7551C10.7669 27.5345 10.8002 27.7965 10.8549 28.0548C11.3596 30.3918 13.4255 32.061 15.8166 32.0631C18.208 32.0655 20.2768 30.3998 20.7856 28.0634C20.8419 27.8027 20.8768 27.5373 20.889 27.2704H28.0981C28.3315 27.2704 28.5481 27.1483 28.6684 26.9483C28.789 26.7483 28.7963 26.4998 28.6869 26.2936L22.969 15.4571C22.8536 15.2379 22.626 15.1012 22.3783 15.1017H21.6942V13.0676C21.6942 12.6996 21.396 12.4017 21.0283 12.4017H18.0593C18.202 10.9035 19.4585 9.75871 20.9635 9.75507H30.6171V11.6324C30.6195 12.8452 31.6023 13.828 32.8151 13.8298H36.2138C36.5815 13.8298 36.8796 13.5321 36.8796 13.1639V1.93268C36.8796 1.56523 36.582 1.26731 36.2145 1.26679V1.26679ZM19.4867 27.7756C19.1156 29.5045 17.5861 30.7392 15.8179 30.7371C14.0492 30.7353 12.5228 29.4972 12.1557 27.7673C12.1187 27.6037 12.0939 27.4373 12.0809 27.2704H19.5632C19.5499 27.4405 19.5242 27.6092 19.4867 27.7756ZM26.9937 25.9373H20.2341C20.2296 25.9373 20.2249 25.9373 20.2205 25.9373H11.4231C11.4184 25.9373 11.414 25.9373 11.4093 25.9373H4.64967L9.6666 16.4337H21.9788L26.9937 25.9373ZM20.3622 15.1017H11.2827V13.7337H20.3622V15.1017ZM20.9619 8.42278C18.7262 8.441 16.8788 10.172 16.7156 12.4017H14.5533C14.8098 9.05012 17.602 6.46002 20.9635 6.45585H30.6171V8.42278H20.9619ZM35.5466 12.4988H32.8143C32.3364 12.4975 31.9494 12.1105 31.9481 11.6329V3.46575C31.9494 2.98841 32.3364 2.60143 32.8143 2.60012H35.5466V12.4988Z" fill="#171717"/>
<path d="M9.03441 28.9994C9.03441 28.6317 8.73623 28.3335 8.36852 28.3335H4.27529C3.90758 28.3335 3.60941 28.6317 3.60941 28.9994C3.60941 29.3674 3.90758 29.6655 4.27529 29.6655H8.36852C8.73623 29.6655 9.03441 29.3674 9.03441 28.9994Z" fill="#171717"/>
<path d="M10.8359 32.7781L8.16456 35.2945C7.98851 35.4567 7.91299 35.7012 7.96742 35.9343C8.02159 36.1679 8.19685 36.3541 8.42654 36.4221C8.65622 36.4903 8.90492 36.4299 9.07758 36.2637L11.7489 33.7479C11.925 33.5856 12.0002 33.3411 11.9461 33.1075C11.8916 32.8744 11.7164 32.688 11.487 32.6197C11.257 32.5518 11.0086 32.6122 10.8359 32.7781V32.7781Z" fill="#171717"/>
<path d="M27.3698 28.3335H23.2771C22.9091 28.3335 22.6109 28.6317 22.6109 28.9994C22.6109 29.3674 22.9091 29.6655 23.2771 29.6655H27.3698C27.7378 29.6655 28.0357 29.3674 28.0357 28.9994C28.0357 28.6317 27.7378 28.3335 27.3698 28.3335Z" fill="#171717"/>
<path d="M20.8033 32.7781C20.6306 32.6122 20.3822 32.5518 20.1522 32.6197C19.9225 32.688 19.7473 32.8744 19.6931 33.1075C19.6387 33.3411 19.7142 33.5856 19.89 33.7479L22.5608 36.2627C22.7335 36.4289 22.9819 36.4896 23.2119 36.4211C23.4413 36.3531 23.6165 36.1669 23.671 35.9333C23.7251 35.7002 23.6499 35.4557 23.4738 35.2932L20.8033 32.7781Z" fill="#171717"/>
<path d="M15.8183 33.9958C15.4506 33.9958 15.1524 34.294 15.1524 34.662V38.0518C15.1524 38.0682 15.1508 38.0854 15.1508 38.101C15.1508 38.4687 15.449 38.7669 15.8167 38.7669C15.8451 38.7666 15.8738 38.7651 15.9019 38.7611C16.2347 38.7192 16.4844 38.4359 16.4844 38.1007V34.662C16.4844 34.294 16.1863 33.9958 15.8183 33.9958Z" fill="#171717"/>
</svg>
