<svg width="40" height="40" viewBox="0 0 40 40" fill="none" xmlns="http://www.w3.org/2000/svg">
<g clip-path="url(#clip0)">
<path d="M30.2549 14.2054C29.5564 12.7919 27.2432 7.73421 26.8168 1.99752C26.7335 0.877531 25.7899 0.000152588 24.6684 0.000152588H15.3087C14.1872 0.000152588 13.2436 0.877531 13.1602 1.99783C12.7339 7.73421 10.421 12.7919 9.72214 14.2054C9.55582 14.5417 9.57474 14.9327 9.7725 15.251C9.97025 15.5696 10.3124 15.7597 10.6871 15.7597H19.2073V20.897C18.0791 21.2339 17.2542 22.2813 17.2542 23.5176C17.2542 24.7541 18.0791 25.8012 19.2073 26.1384V35.1469H16.3686C14.5433 35.1469 13.0553 36.6184 13.0287 38.4376H11.3197C10.8882 38.4376 10.5385 38.7876 10.5385 39.2188C10.5385 39.6503 10.8882 40.0001 11.3197 40.0001H28.6573C29.0889 40.0001 29.4386 39.6503 29.4386 39.2188C29.4386 38.7876 29.0889 38.4376 28.6573 38.4376H26.9484C26.9218 36.6184 25.4338 35.1469 23.6085 35.1469H20.7698V26.1381C21.898 25.8012 22.7229 24.7538 22.7229 23.5176C22.7229 22.281 21.898 21.2339 20.7698 20.8967V15.7594H29.29C29.6647 15.7594 30.0068 15.5693 30.2046 15.251C30.4023 14.9327 30.4213 14.5417 30.2549 14.2054V14.2054ZM25.3856 38.4376H14.5915C14.6178 37.4799 15.4048 36.7091 16.3686 36.7091H23.6085C24.5723 36.7091 25.3593 37.4799 25.3856 38.4376ZM21.1604 23.5176C21.1604 24.1636 20.6346 24.6894 19.9885 24.6894C19.3425 24.6894 18.8167 24.1636 18.8167 23.5176C18.8167 22.8715 19.3425 22.3457 19.9885 22.3457C20.6346 22.3457 21.1604 22.8715 21.1604 23.5176ZM14.7185 2.1138C14.7414 1.80465 15.0008 1.56265 15.3087 1.56265H17.2551C17.05 5.91658 15.2696 12.299 14.7151 14.1972H11.4568C12.411 12.126 14.3254 7.40157 14.7185 2.1138ZM25.2617 14.1972C25.0081 13.3308 24.4987 11.5309 24.004 9.42823C23.9052 9.00831 23.4843 8.7483 23.0647 8.84688C22.6448 8.94575 22.3845 9.36628 22.4834 9.7862C22.913 11.613 23.354 13.2167 23.6351 14.1972H16.3435C17.0247 11.83 18.6326 5.85067 18.8191 1.56265H21.158C21.183 2.13546 21.2346 2.75955 21.3115 3.42696C21.3609 3.85574 21.7494 4.16274 22.1773 4.11361C22.6057 4.06417 22.9133 3.6766 22.8636 3.24783C22.7937 2.64297 22.7464 2.07901 22.722 1.56265H24.6687C24.9763 1.56265 25.2357 1.80465 25.2586 2.11349C25.6517 7.40157 27.566 12.126 28.5203 14.1972H25.2617Z" fill="#171717"/>
<path d="M22.5916 5.77637C22.1601 5.77637 21.8103 6.12611 21.8103 6.55762V6.55976C21.8103 6.99097 22.1601 7.33979 22.5916 7.33979C23.0231 7.33979 23.3728 6.98914 23.3728 6.55762C23.3728 6.12611 23.0231 5.77637 22.5916 5.77637Z" fill="#171717"/>
</g>
<defs>
<clipPath id="clip0">
<rect width="40" height="40" fill="white" transform="translate(6.10352e-05 0.000152588)"/>
</clipPath>
</defs>
</svg>
