<svg width="40" height="40" viewBox="0 0 40 40" fill="none" xmlns="http://www.w3.org/2000/svg">
<g clip-path="url(#clip0)">
<path d="M23.9941 13.0628C23.4821 11.5669 22.1811 10.4794 20.6181 10.2408C20.6492 10.1643 20.6657 10.0827 20.6667 10.0002V5.28015C22.9598 4.94749 24.6623 2.9839 24.6667 0.666819C24.6667 0.298653 24.3682 0.000152588 24.0001 0.000152588H16.0001C15.6319 0.000152588 15.3334 0.298653 15.3334 0.666819C15.3378 2.9839 17.0403 4.9474 19.3334 5.28015V10.0002C19.3344 10.0827 19.3509 10.1643 19.3821 10.2408C17.8194 10.4793 16.5186 11.5662 16.0061 13.0615C6.70806 14.8668 6.10352e-05 22.7662 6.10352e-05 32.0002C6.10352e-05 32.3683 0.298561 32.6668 0.666728 32.6668H12.6667C12.6667 36.7169 15.95 40.0002 20.0001 40.0002C24.0501 40.0002 27.3334 36.7169 27.3334 32.6668H39.3334C39.7016 32.6668 40.0001 32.3683 40.0001 32.0002C40.0001 22.7748 33.3047 14.8822 23.9941 13.0628ZM19.3367 3.93682C18.025 3.67049 16.9997 2.64524 16.7334 1.33349H23.2667C22.9004 3.13765 21.1409 4.30315 19.3367 3.93682ZM20.0001 11.5202C20.9674 11.5236 21.8701 12.0063 22.4101 12.8088C22.1681 12.7802 21.9207 12.7635 21.6767 12.7422C21.5594 12.7328 21.4447 12.7182 21.3274 12.7108C20.8867 12.6842 20.4447 12.6668 20.0001 12.6668C19.5554 12.6668 19.1134 12.6842 18.6761 12.7122C18.5527 12.7202 18.4334 12.7348 18.3107 12.7448C18.0694 12.7648 17.8261 12.7808 17.5901 12.8115C18.1295 12.0079 19.0322 11.5242 20.0001 11.5202ZM20.0001 38.6668C16.6879 38.6632 14.0037 35.979 14.0001 32.6668H26.0001C25.9964 35.979 23.3122 38.6632 20.0001 38.6668ZM1.34606 31.3335C1.66673 22.9055 7.99539 15.8002 16.6574 14.2928C16.9114 14.2502 17.1654 14.2062 17.4314 14.1742C19.1398 13.9422 20.8716 13.9422 22.5801 14.1742C22.8347 14.2048 23.0887 14.2488 23.3661 14.2955C32.0054 15.8002 38.3334 22.9055 38.6541 31.3335H1.34606Z" fill="#171717"/>
<path d="M20 37.3335C21.8735 37.3416 23.6117 36.3589 24.5707 34.7495C24.7679 34.4385 24.6756 34.0267 24.3646 33.8295C24.0536 33.6323 23.6418 33.7246 23.4446 34.0356C23.4394 34.0439 23.4343 34.0523 23.4294 34.0608C22.7098 35.2684 21.4057 36.0058 20 36.0001C19.6319 36.0001 19.3334 36.2986 19.3334 36.6668C19.3334 37.035 19.6319 37.3335 20 37.3335Z" fill="#171717"/>
</g>
<defs>
<clipPath id="clip0">
<rect width="40" height="40" fill="white" transform="translate(6.10352e-05 0.000152588)"/>
</clipPath>
</defs>
</svg>
