<svg width="16" height="20" viewBox="0 0 16 20" fill="none" xmlns="http://www.w3.org/2000/svg">
<path d="M8.31253 0C4.23865 0 0.924438 3.31421 0.924438 7.38809C0.924438 8.72925 1.52592 10.1717 1.55112 10.2325C1.74539 10.6936 2.1287 11.4098 2.4051 11.8296L7.47072 19.505C7.67803 19.8196 7.98485 20 8.31253 20C8.64022 20 8.94704 19.8196 9.15434 19.5054L14.2204 11.8296C14.4972 11.4098 14.8801 10.6936 15.0744 10.2325C15.0996 10.1721 15.7006 8.72968 15.7006 7.38809C15.7006 3.31421 12.3864 0 8.31253 0ZM14.273 9.89526C14.0996 10.3086 13.7428 10.9748 13.4946 11.3512L8.42857 19.0269C8.32861 19.1786 8.29689 19.1786 8.19693 19.0269L3.13087 11.3512C2.88272 10.9748 2.52592 10.3081 2.35251 9.89483C2.34513 9.87701 1.79363 8.54933 1.79363 7.38809C1.79363 3.79357 4.71801 0.869187 8.31253 0.869187C11.9071 0.869187 14.8314 3.79357 14.8314 7.38809C14.8314 8.55106 14.2786 9.88222 14.273 9.89526Z" fill="#171717"/>
<path d="M8.31254 3.47719C6.15565 3.47719 4.40119 5.23208 4.40119 7.38853C4.40119 9.54498 6.15565 11.2999 8.31254 11.2999C10.4694 11.2999 12.2239 9.54498 12.2239 7.38853C12.2239 5.23208 10.4694 3.47719 8.31254 3.47719ZM8.31254 10.4307C6.63544 10.4307 5.27038 9.06606 5.27038 7.38853C5.27038 5.711 6.63544 4.34637 8.31254 4.34637C9.98964 4.34637 11.3547 5.711 11.3547 7.38853C11.3547 9.06606 9.98964 10.4307 8.31254 10.4307Z" fill="#171717"/>
</svg>
