<svg width="20" height="20" viewBox="0 0 20 20" fill="none" xmlns="http://www.w3.org/2000/svg">
<path d="M4.03733 13.2947C6.00998 15.6527 8.38461 17.5093 11.0949 18.823C12.1268 19.3121 13.5069 19.8923 15.0444 19.9917C15.1397 19.9959 15.2309 20 15.3262 20C16.3581 20 17.1869 19.6436 17.8624 18.9101C17.8666 18.9059 17.8749 18.8976 17.879 18.8893C18.1194 18.5993 18.3929 18.3382 18.6789 18.0605C18.8736 17.874 19.0726 17.6792 19.2632 17.4803C20.1459 16.5603 20.1459 15.3916 19.2549 14.5006L16.7642 12.0099C16.3415 11.5707 15.8359 11.3386 15.3055 11.3386C14.775 11.3386 14.2653 11.5707 13.8301 12.0058L12.3465 13.4894C12.2097 13.4107 12.0688 13.3402 11.9362 13.2739C11.7704 13.191 11.6171 13.1123 11.4803 13.0253C10.1293 12.1674 8.90264 11.0485 7.72983 9.61044C7.1372 8.86034 6.73936 8.23042 6.4617 7.58807C6.85125 7.23581 7.21595 6.86697 7.5682 6.50642C7.69253 6.37795 7.821 6.24948 7.94947 6.12101C8.39705 5.67344 8.63741 5.15541 8.63741 4.62909C8.63741 4.10278 8.40119 3.58475 7.94947 3.13717L6.71449 1.9022C6.56945 1.75715 6.43269 1.61625 6.29178 1.4712C6.01827 1.18939 5.73231 0.899296 5.45051 0.63821C5.02365 0.219644 4.5222 0 3.99174 0C3.46543 0 2.95983 0.219644 2.5164 0.642354L0.966463 2.19229C0.40285 2.75591 0.0837449 3.4397 0.0174374 4.23125C-0.0613028 5.22172 0.121043 6.27435 0.593484 7.54662C1.31872 9.51513 2.4128 11.3427 4.03733 13.2947ZM1.02863 4.31828C1.07836 3.76709 1.28971 3.30709 1.68756 2.90924L3.22921 1.36759C3.46957 1.13552 3.7348 1.01533 3.99174 1.01533C4.24454 1.01533 4.50148 1.13552 4.7377 1.37588C5.01537 1.63282 5.27645 1.9022 5.55826 2.18815C5.69916 2.3332 5.84421 2.47824 5.98926 2.62743L7.22423 3.86241C7.48118 4.11935 7.61379 4.38044 7.61379 4.63738C7.61379 4.89432 7.48118 5.15541 7.22423 5.41235C7.09576 5.54082 6.96729 5.67344 6.83882 5.80191C6.45341 6.19146 6.09286 6.5603 5.69502 6.91256C5.68673 6.92085 5.68258 6.92499 5.6743 6.93328C5.33033 7.27725 5.3842 7.60464 5.46709 7.85329C5.47123 7.86573 5.47537 7.87402 5.47952 7.88645C5.79862 8.65313 6.24205 9.38251 6.93414 10.2528C8.1774 11.7862 9.48698 12.9755 10.9292 13.8914C11.1074 14.0075 11.298 14.0986 11.4762 14.1898C11.642 14.2727 11.7953 14.3514 11.9321 14.4385C11.9486 14.4467 11.9611 14.455 11.9777 14.4633C12.1144 14.5338 12.247 14.5669 12.3796 14.5669C12.7112 14.5669 12.9267 14.3556 12.9971 14.2851L14.5471 12.7352C14.7874 12.4948 15.0485 12.3663 15.3055 12.3663C15.6204 12.3663 15.8774 12.5611 16.039 12.7352L18.538 15.23C19.0353 15.7273 19.0311 16.2661 18.5255 16.7924C18.3515 16.9789 18.1691 17.1571 17.9743 17.3436C17.6842 17.6254 17.3817 17.9155 17.1082 18.2429C16.6316 18.7567 16.0639 18.9971 15.3303 18.9971C15.2599 18.9971 15.1853 18.993 15.1148 18.9888C13.7555 18.9018 12.4915 18.3713 11.5425 17.9196C8.9648 16.6722 6.70206 14.9026 4.82473 12.6564C3.27894 10.7957 2.23874 9.06341 1.5508 7.2068C1.12394 6.06714 0.962319 5.15126 1.02863 4.31828Z" fill="#171717"/>
</svg>
