<svg width="40" height="40" viewBox="0 0 40 40" fill="none" xmlns="http://www.w3.org/2000/svg">
<g clip-path="url(#clip0)">
<path d="M2.84727 17.0309L4.14121 17.9806C3.44449 19.5291 3.89646 21.4108 5.31918 22.4554L13.4338 28.4112L14.1778 31.9387C14.5925 33.904 15.6661 35.656 17.2186 36.9158C16.6735 37.7334 16.864 38.847 17.6638 39.4341L17.947 39.6419C18.7695 40.2456 19.931 40.068 20.5349 39.2449L25.9725 31.8362C26.2386 31.8832 26.5047 31.9067 26.7687 31.9067C28.1939 31.9067 29.5513 31.2368 30.4275 30.043C31.4663 28.6282 31.5987 26.7895 30.8025 25.2554L36.2404 17.8463C36.8444 17.0239 36.6662 15.8624 35.8434 15.2588L35.5602 15.0509C34.7643 14.4665 33.6422 14.61 33.0205 15.3888C31.3802 14.3451 29.439 13.8763 27.4914 14.0652L23.9028 14.4128L15.7342 8.41734V6.65862C15.7342 6.33513 15.4721 6.07268 15.1483 6.07268C14.8245 6.07268 14.5623 6.33513 14.5623 6.65862V17.2586C14.5623 17.9235 14.0216 18.4652 13.356 18.4652C12.6907 18.4652 12.1493 17.9238 12.1493 17.2586C12.1493 16.7541 12.1493 3.00353 12.1493 2.37853C12.1493 1.71325 12.6907 1.17187 13.3557 1.17187C14.0209 1.17187 14.5623 1.71325 14.5623 2.37853V3.92455C14.5623 4.24804 14.8245 4.51049 15.1483 4.51049C15.4721 4.51049 15.7342 4.24804 15.7342 3.92455V2.37823C15.7342 1.06689 14.6673 0 13.356 0C12.0446 0 10.9774 1.06689 10.9774 2.37823V8.53605L9.74575 7.63182C8.60165 6.79228 6.98605 7.04039 6.14651 8.18419L2.2952 13.4317C1.45506 14.5761 1.70286 16.1908 2.84727 17.0309V17.0309ZM29.483 29.3496C28.8357 30.2319 27.8344 30.7284 26.7818 30.7339L29.9938 26.3574C30.3042 27.3635 30.1305 28.4673 29.483 29.3496ZM33.9175 16.141C34.1384 15.8401 34.5669 15.7751 34.8668 15.9954L35.1504 16.2033C35.45 16.4236 35.5169 16.8518 35.2959 17.153L27.4432 27.8524L25.2535 30.8358C25.2535 30.8358 25.2535 30.8358 25.2532 30.8358L19.5901 38.5516C19.3694 38.8521 18.941 38.9178 18.6404 38.6971L18.3572 38.4893C18.0554 38.2677 17.9897 37.8417 18.2116 37.5396C18.2681 37.4627 26.0079 26.9174 26.0644 26.8405L33.9175 16.141ZM23.9492 15.5856L27.6046 15.2316C29.2635 15.0711 30.917 15.4605 32.3223 16.3336L17.911 35.9689C16.5917 34.8806 15.6796 33.3791 15.3247 31.6967L14.6102 28.3096L23.9492 15.5856ZM15.9738 20.7168C15.7998 20.444 15.4373 20.364 15.1647 20.5383C14.624 20.8834 13.9984 21.0659 13.356 21.0659C11.499 21.0659 9.98806 19.555 9.98806 17.698C9.98806 16.784 10.3518 15.9332 10.9777 15.3119V17.2586C10.9777 18.5696 12.0443 19.6368 13.356 19.6368C14.6673 19.6368 15.7342 18.5702 15.7342 17.2586V15.3119C16.3601 15.9332 16.7239 16.784 16.7239 17.698C16.7239 18.0337 16.6744 18.366 16.5765 18.6853C16.4819 18.9947 16.6558 19.3225 16.9653 19.4171C17.2744 19.512 17.6025 19.3377 17.6971 19.0283C17.8289 18.5977 17.8958 18.15 17.8958 17.698C17.8958 16.1053 17.0761 14.6557 15.7342 13.8318V9.87089L22.8542 15.0967L13.8986 27.2985L6.01285 21.5106C4.93863 20.7223 4.67618 19.2337 5.3906 18.1295C5.3909 18.1292 5.3909 18.1292 5.3909 18.1289C5.4614 18.0203 5.14432 18.4567 10.9774 10.5093V13.8318C9.63589 14.6557 8.81619 16.1053 8.81619 17.698C8.81619 20.2011 10.8526 22.2375 13.356 22.2375C14.2224 22.2375 15.0659 21.9915 15.7952 21.5258C16.0681 21.3519 16.148 20.9896 15.9738 20.7168ZM3.23972 14.125L7.09134 8.87754C7.54757 8.25621 8.43075 8.1204 9.05239 8.57664L10.2807 9.47813L4.76895 16.9879L3.54062 16.0861C2.91715 15.6283 2.78196 14.7485 3.23972 14.125Z" fill="#171717"/>
<path d="M35.8479 34.0213C36.0395 33.7604 35.9834 33.3935 35.7224 33.2022L32.5208 30.8523C32.2599 30.6607 31.8931 30.7172 31.7017 30.9781C31.5104 31.2387 31.5666 31.6055 31.8275 31.7969L35.0291 34.147C35.29 34.3384 35.6568 34.2819 35.8479 34.0213V34.0213Z" fill="#171717"/>
<path d="M33.0974 28.0121C33.0416 28.331 33.2549 28.6344 33.5735 28.6905L37.4856 29.3751C37.8042 29.4309 38.1078 29.2179 38.1637 28.899C38.2195 28.5804 38.0062 28.2767 37.6876 28.2209L33.7755 27.5361C33.4569 27.4802 33.1533 27.6935 33.0974 28.0121Z" fill="#171717"/>
<path d="M33.1372 24.2805C32.861 24.449 32.7738 24.8094 32.9422 25.0856C33.111 25.3624 33.4717 25.449 33.7473 25.2809L37.1381 23.2133C37.4146 23.0446 37.5019 22.6841 37.3334 22.408C37.1649 22.1315 36.8042 22.0442 36.528 22.2126L33.1372 24.2805Z" fill="#171717"/>
<path d="M31.6559 37.7659C31.9433 37.617 32.0553 37.2636 31.9067 36.9761L30.0808 33.4495C29.9319 33.162 29.5785 33.0497 29.291 33.1984C29.0036 33.3473 28.8913 33.7007 29.0402 33.9882L30.8661 37.5151C31.015 37.8022 31.3684 37.9145 31.6559 37.7659V37.7659Z" fill="#171717"/>
<path d="M25.2139 38.9198C25.5286 38.9976 25.846 38.8057 25.9238 38.4919L26.8796 34.6373C26.9577 34.3232 26.7661 34.0056 26.452 33.9277C26.1377 33.8496 25.82 34.0413 25.7422 34.3553L24.7864 38.21C24.7086 38.524 24.8999 38.8417 25.2139 38.9198Z" fill="#171717"/>
</g>
<defs>
<clipPath id="clip0">
<rect width="40" height="40" fill="white"/>
</clipPath>
</defs>
</svg>
