<svg width="28" height="40" viewBox="0 0 28 40" fill="none" xmlns="http://www.w3.org/2000/svg">
<path d="M25.9935 9.29826H25.0938V8.04826C25.0927 7.07478 24.7054 6.14149 24.0171 5.45313C23.3287 4.76478 22.3954 4.37755 21.4219 4.37639H16.1832C16.49 3.97028 16.6774 3.48666 16.7244 2.97987C16.7715 2.47309 16.6762 1.96323 16.4494 1.50761C16.2226 1.05198 15.8732 0.668652 15.4405 0.400699C15.0077 0.132745 14.5089 -0.00920868 13.9999 -0.00920868C13.4909 -0.00920868 12.9921 0.132745 12.5594 0.400699C12.1266 0.668652 11.7772 1.05198 11.5504 1.50761C11.3236 1.96323 11.2283 2.47309 11.2754 2.97987C11.3224 3.48666 11.5098 3.97028 11.8166 4.37639H6.57693C5.60345 4.37788 4.6703 4.76542 3.98217 5.45402C3.29405 6.14261 2.90714 7.07603 2.90631 8.04951V9.29951H2.00662C1.53021 9.30001 1.07346 9.48948 0.736588 9.82635C0.399716 10.1632 0.210244 10.62 0.209747 11.0964V11.7214C0.210244 12.1978 0.399716 12.6546 0.736588 12.9914C1.07346 13.3283 1.53021 13.5178 2.00662 13.5183H3.01506L6.00944 26.7398H5.48318C5.00702 26.7407 4.55063 26.9304 4.21405 27.2672C3.87747 27.604 3.68814 28.0605 3.68756 28.5367V29.1617C3.68806 29.6381 3.87753 30.0949 4.2144 30.4317C4.55127 30.7686 5.00803 30.9581 5.48444 30.9586H6.39381V32.0889C6.39455 32.6481 6.61703 33.1842 7.01245 33.5796C7.40788 33.975 7.94397 34.1975 8.50319 34.1983H11.3344V39.4523C11.3343 39.5242 11.3483 39.5955 11.3757 39.6619C11.4031 39.7284 11.4434 39.7888 11.4942 39.8397C11.545 39.8906 11.6053 39.931 11.6718 39.9585C11.7382 39.986 11.8094 40.0002 11.8813 40.0001H16.1188C16.1906 40.0002 16.2618 39.9861 16.3281 39.9586C16.3945 39.9311 16.4548 39.8908 16.5056 39.8401C16.5564 39.7893 16.5967 39.729 16.6241 39.6626C16.6516 39.5962 16.6657 39.5251 16.6657 39.4533V34.1983H19.4982C20.0574 34.1975 20.5935 33.975 20.9889 33.5796C21.3843 33.1842 21.6068 32.6481 21.6076 32.0889V30.9586H22.5169C22.9931 30.9578 23.4496 30.7681 23.7862 30.4313C24.1228 30.0945 24.3121 29.6379 24.3126 29.1617V28.5367C24.312 28.0603 24.1225 27.6036 23.7856 27.2668C23.4488 26.9299 22.9921 26.7404 22.5157 26.7398H21.9907L24.9851 13.517H25.9935C26.4699 13.5165 26.9267 13.327 27.2635 12.9902C27.6004 12.6533 27.7899 12.1965 27.7904 11.7201V11.0951C27.7899 10.6187 27.6004 10.162 27.2635 9.8251C26.9267 9.48823 26.4699 9.29876 25.9935 9.29826V9.29826ZM12.3576 2.73576C12.3574 2.41088 12.4537 2.09326 12.6341 1.82307C12.8145 1.55288 13.071 1.34226 13.3711 1.21785C13.6712 1.09343 14.0015 1.06082 14.3201 1.12412C14.6388 1.18743 14.9315 1.34381 15.1613 1.57349C15.391 1.80318 15.5475 2.09584 15.611 2.41447C15.6744 2.7331 15.6419 3.06339 15.5176 3.36355C15.3933 3.66372 15.1828 3.92028 14.9127 4.10078C14.6425 4.28129 14.3249 4.37764 14.0001 4.37764C13.5646 4.37714 13.1472 4.20398 12.8393 3.89612C12.5314 3.58827 12.3581 3.17086 12.3576 2.73545V2.73576ZM4.00006 8.04951C4.0008 7.36598 4.27267 6.71066 4.756 6.22733C5.23933 5.744 5.89465 5.47213 6.57819 5.47139H21.4232C22.1065 5.47246 22.7615 5.74447 23.2446 6.22777C23.7276 6.71106 23.9993 7.3662 24.0001 8.04951V9.29951H4.00006V8.04951ZM4.13756 13.5183H9.45569L10.6035 26.7411H7.131L4.13756 13.5183ZM10.5547 13.5183H17.4466L16.2988 26.7398H11.7013L10.5547 13.5183ZM15.5719 38.9064H12.4282V34.1983H15.5719V38.9064ZM20.5138 32.0898C20.5135 32.3591 20.4064 32.6172 20.216 32.8076C20.0256 32.998 19.7674 33.1051 19.4982 33.1055H8.50193C8.23268 33.1051 7.97454 32.998 7.78415 32.8076C7.59375 32.6172 7.48664 32.3591 7.48631 32.0898V30.9586H20.5138V32.0898ZM23.2188 28.5367V29.1617C23.2186 29.3481 23.1444 29.5268 23.0126 29.6586C22.8808 29.7904 22.7021 29.8646 22.5157 29.8648H5.48318C5.29678 29.8646 5.11808 29.7904 4.98628 29.6586C4.85447 29.5268 4.78031 29.3481 4.78006 29.1617V28.5367C4.78031 28.3503 4.85447 28.1716 4.98628 28.0398C5.11808 27.908 5.29678 27.8338 5.48318 27.8336H22.5169C22.7031 27.8342 22.8815 27.9085 23.013 28.0402C23.1446 28.172 23.2186 28.3505 23.2188 28.5367V28.5367ZM20.8676 26.7398H17.3966L18.5444 13.517H23.8635L20.8676 26.7398ZM26.6966 11.7189C26.6964 11.9053 26.6222 12.084 26.4904 12.2158C26.3586 12.3476 26.1799 12.4218 25.9935 12.422H2.00662C1.82022 12.4218 1.64152 12.3476 1.50971 12.2158C1.3779 12.084 1.30375 11.9053 1.3035 11.7189V11.0939C1.30375 10.9075 1.3779 10.7288 1.50971 10.597C1.64152 10.4652 1.82022 10.391 2.00662 10.3908H25.9935C26.1799 10.391 26.3586 10.4652 26.4904 10.597C26.6222 10.7288 26.6964 10.9075 26.6966 11.0939V11.7189Z" fill="#171717"/>
</svg>
