<svg width="40" height="40" viewBox="0 0 40 40" fill="none" xmlns="http://www.w3.org/2000/svg">
<g clip-path="url(#clip0)">
<path d="M10.409 39.9774L11.7671 36.3311L9.56964 35.5126L8.21148 39.159L10.409 39.9774Z" fill="#171717"/>
<path d="M0.82193 31.8065L4.46979 30.4478L3.65166 28.2512L0.00379769 29.6099L0.82193 31.8065Z" fill="#171717"/>
<path d="M4.72479 36.9261L7.72425 33.9266L6.06655 32.2689L3.06709 35.2684L4.72479 36.9261Z" fill="#171717"/>
<path d="M18.1419 2.34408L15.0148 2.34408L15.0148 6.50017L16.539 8.02353L20.9772 3.58759C21.8496 2.71556 23.0097 2.23533 24.2435 2.23533C25.3645 2.23533 26.4245 2.63181 27.2634 3.3583L30.6026 0.0208769L40.0001 9.41353L36.6608 12.751C38.229 14.5628 38.1526 17.3136 36.4315 19.0338L21.9777 33.4801L19.7913 39.9999L6.10352e-05 20.2191L6.52326 18.0338L11.5637 12.996L7.97881 9.41299V2.344H4.8517V-6.10352e-05L18.1419 -6.10352e-05V2.34408ZM30.6026 3.33595L28.9303 5.00728L35.0111 11.0849L36.6833 9.41353L30.6026 3.33595ZM4.33678 21.2385L18.7713 35.6654L19.6109 33.1619L6.8417 20.3994L4.33678 21.2385ZM8.81584 19.0574L20.9535 31.1888L34.7731 17.3763C35.2026 16.947 35.4391 16.3763 35.4391 15.7692C35.4391 15.1621 35.2026 14.5913 34.7731 14.1621L25.8514 5.24502C25.4219 4.81572 24.8508 4.57931 24.2435 4.57931C23.6362 4.57931 23.0651 4.81572 22.6356 5.24502L18.1974 9.68095L18.7182 10.2015C20.0898 11.5724 20.0898 13.8032 18.7182 15.1741C17.3465 16.545 15.1147 16.545 13.743 15.1741L13.2222 14.6535L8.81584 19.0574ZM10.3241 8.44205L15.4013 13.5166C15.8586 13.9735 16.6025 13.9735 17.0597 13.5166C17.5169 13.0595 17.5168 12.316 17.0597 11.859L12.6694 7.47111L12.6694 2.34408H10.3241L10.3241 8.44205Z" fill="#171717"/>
</g>
<defs>
<clipPath id="clip0">
<rect width="40" height="40" fill="white" transform="matrix(0 -1 -1 0 40.0001 39.9999)"/>
</clipPath>
</defs>
</svg>
