<svg width="16" height="20" viewBox="0 0 16 20" fill="none" xmlns="http://www.w3.org/2000/svg">
<path d="M12.2075 9.6644C11.937 10.005 11.6331 10.3194 11.2841 10.6032C13.2763 11.746 14.6213 13.8944 14.6213 16.3512C14.6213 17.6786 11.7128 18.7185 7.99989 18.7185C4.28696 18.7185 1.37848 17.6786 1.37848 16.3512C1.37848 13.8944 2.72344 11.746 4.71565 10.6032C4.36668 10.3194 4.0628 10.005 3.79227 9.6644C1.57371 11.0654 0.0969238 13.5389 0.0969238 16.3512C0.0969238 17.2031 0.56339 18.3903 2.78576 19.2085C4.17201 19.719 6.02376 20 7.99993 20C9.9761 20 11.8278 19.719 13.2141 19.2085C15.4364 18.3903 15.9029 17.2031 15.9029 16.3512C15.9029 13.5389 14.4261 11.0654 12.2075 9.6644Z" fill="#171717"/>
<path d="M7.99984 10.5088C10.4905 10.5088 12.4084 8.10131 12.4084 5.25444C12.4084 2.40626 10.4895 0 7.99984 0C5.50917 0 3.59125 2.40753 3.59125 5.2544C3.59125 8.10258 5.51018 10.5088 7.99984 10.5088ZM7.99984 1.28155C9.72406 1.28155 11.1269 3.06376 11.1269 5.2544C11.1269 7.44504 9.72406 9.22725 7.99984 9.22725C6.27561 9.22725 4.8728 7.44504 4.8728 5.2544C4.8728 3.06376 6.27561 1.28155 7.99984 1.28155Z" fill="#171717"/>
</svg>
