<svg width="24" height="22" viewBox="0 0 24 22" fill="none" xmlns="http://www.w3.org/2000/svg">
<path d="M12 21.446C11.6583 21.446 11.3289 21.3223 11.0722 21.0974C10.1027 20.2496 9.16791 19.4529 8.3432 18.7502L8.33899 18.7465C5.92108 16.686 3.83313 14.9066 2.38037 13.1537C0.756409 11.1942 0 9.33618 0 7.30646C0 5.33441 0.676208 3.51508 1.90393 2.18335C3.1463 0.835876 4.85101 0.09375 6.70459 0.09375C8.08997 0.09375 9.3587 0.531738 10.4755 1.39545C11.0391 1.83142 11.5499 2.36499 12 2.98737C12.4503 2.36499 12.9609 1.83142 13.5247 1.39545C14.6415 0.531738 15.9102 0.09375 17.2956 0.09375C19.149 0.09375 20.8539 0.835876 22.0963 2.18335C23.324 3.51508 24 5.33441 24 7.30646C24 9.33618 23.2438 11.1942 21.6198 13.1536C20.1671 14.9066 18.0793 16.6859 15.6617 18.7462C14.8356 19.45 13.8994 20.248 12.9276 21.0978C12.6711 21.3223 12.3415 21.446 12 21.446V21.446ZM6.70459 1.49963C5.24835 1.49963 3.91058 2.08081 2.93738 3.13623C1.94971 4.20758 1.4057 5.68854 1.4057 7.30646C1.4057 9.01355 2.04016 10.5403 3.46271 12.2567C4.83765 13.9158 6.88275 15.6586 9.25067 17.6766L9.25507 17.6803C10.0829 18.3858 11.0213 19.1856 11.998 20.0396C12.9805 19.184 13.9204 18.3829 14.7499 17.6763C17.1176 15.6583 19.1625 13.9158 20.5375 12.2567C21.9598 10.5403 22.5943 9.01355 22.5943 7.30646C22.5943 5.68854 22.0503 4.20758 21.0626 3.13623C20.0896 2.08081 18.7516 1.49963 17.2956 1.49963C16.2288 1.49963 15.2494 1.83875 14.3846 2.50745C13.6139 3.10364 13.077 3.8573 12.7623 4.38464C12.6004 4.65582 12.3155 4.81769 12 4.81769C11.6845 4.81769 11.3996 4.65582 11.2377 4.38464C10.9232 3.8573 10.3863 3.10364 9.61542 2.50745C8.75061 1.83875 7.77118 1.49963 6.70459 1.49963V1.49963Z" fill="#171717"/>
</svg>
