<svg width="40" height="40" viewBox="0 0 40 40" fill="none" xmlns="http://www.w3.org/2000/svg">
<path d="M20 40C31.0455 40 40 31.0455 40 20C40 8.95453 31.0455 0 20 0C8.95453 0 0 8.95453 0 20C0 31.0455 8.95453 40 20 40ZM20 3.33336C29.2045 3.33336 36.6666 10.7955 36.6666 20C36.6666 29.2045 29.2045 36.6666 20 36.6666C10.7955 36.6666 3.33336 29.2045 3.33336 20C3.33336 10.7955 10.7955 3.33336 20 3.33336Z" fill="url(#paint0_linear)"/>
<path d="M22.1548 29.5119C22.8057 30.1627 23.861 30.1627 24.5119 29.5119C25.1627 28.861 25.1627 27.8057 24.5119 27.1548L17.357 20L24.5119 12.8451C25.1627 12.1943 25.1627 11.139 24.5119 10.4881C23.861 9.83725 22.8057 9.83725 22.1548 10.4881L13.8215 18.8215C13.1706 19.4723 13.1706 20.5276 13.8215 21.1785L22.1548 29.5119Z" fill="url(#paint1_linear)"/>
<defs>
<linearGradient id="paint0_linear" x1="20" y1="40" x2="19.9988" y2="3.60626e-08" gradientUnits="userSpaceOnUse">
<stop stop-color="#FFCC33"/>
<stop offset="1" stop-color="#FFB347"/>
</linearGradient>
<linearGradient id="paint1_linear" x1="19.1667" y1="30" x2="19.1656" y2="9.99996" gradientUnits="userSpaceOnUse">
<stop stop-color="#FFCC33"/>
<stop offset="1" stop-color="#FFB347"/>
</linearGradient>
</defs>
</svg>
