<svg width="40" height="40" viewBox="0 0 40 40" fill="none" xmlns="http://www.w3.org/2000/svg">
<path d="M30.625 40H9.375C4.20563 40 0 35.7944 0 30.625V9.375C0 4.20563 4.20563 0 9.375 0H30.625C35.7944 0 40 4.20563 40 9.375V30.625C40 35.7944 35.7944 40 30.625 40ZM9.375 3.125C5.92875 3.125 3.125 5.92875 3.125 9.375V30.625C3.125 34.0713 5.92875 36.875 9.375 36.875H30.625C34.0713 36.875 36.875 34.0713 36.875 30.625V9.375C36.875 5.92875 34.0713 3.125 30.625 3.125H9.375ZM31.0156 7.03125C29.937 7.03125 29.0625 7.9057 29.0625 8.98438C29.0625 10.063 29.937 10.9375 31.0156 10.9375C32.0943 10.9375 32.9688 10.063 32.9688 8.98438C32.9688 7.9057 32.0943 7.03125 31.0156 7.03125ZM20 30.1562C14.3998 30.1562 9.84375 25.6002 9.84375 20C10.4016 6.52633 29.6005 6.53023 30.1562 20.0001C30.1562 25.6002 25.6002 30.1562 20 30.1562ZM20 12.9688C16.123 12.9688 12.9688 16.123 12.9688 20C13.355 29.3279 26.6464 29.3252 27.0312 19.9999C27.0312 16.123 23.877 12.9688 20 12.9688Z" fill="url(#paint0_linear)"/>
<defs>
<linearGradient id="paint0_linear" x1="20" y1="0" x2="20.0012" y2="40" gradientUnits="userSpaceOnUse">
<stop stop-color="#DA4453"/>
<stop offset="0.987061" stop-color="#89216B"/>
</linearGradient>
</defs>
</svg>
