<svg width="60" height="60" viewBox="0 0 60 60" fill="none" xmlns="http://www.w3.org/2000/svg">
<path d="M52.8889 49.6607C52.7555 41.5065 44.4183 39.0973 38.3306 37.3382C37.6204 37.133 36.9373 36.9355 36.2972 36.7384V33.3745C37.5417 32.5944 38.6323 31.5905 39.512 30.4194H43.2203C45.035 30.4194 46.5114 28.943 46.5114 27.1283V23.1444C46.7314 22.6316 46.8536 22.0672 46.8536 21.4746V20.2355C46.8536 19.6435 46.7314 19.0795 46.5114 18.567V16.5118C46.5114 7.40722 39.1044 0 30 0C20.8973 0 13.4918 7.40722 13.4918 16.5119V18.5083C13.4918 18.524 13.4936 18.5391 13.4942 18.5547C13.2708 19.0706 13.1464 19.6387 13.1464 20.2357V21.4747C13.1464 23.8169 15.0504 25.7225 17.3908 25.7225H18.3592C19.03 28.9391 21.0047 31.6825 23.7028 33.374V36.7384C23.0626 36.9355 22.3796 37.1329 21.6693 37.3382C15.5816 39.0973 7.24442 41.5066 7.11106 49.6607C7.11094 49.6672 7.11094 49.6735 7.11094 49.68V58.8281C7.11094 59.4753 7.63571 60 8.28282 60H11.7572C12.4043 60 12.9291 59.4753 12.9291 58.8281C12.9291 58.1809 12.4043 57.6562 11.7572 57.6562H9.45458V49.6897C9.50392 46.8447 10.8108 44.712 13.5672 42.9782C15.3861 41.8341 17.6097 41.019 19.8016 40.337L22.633 45.8535C22.9485 46.4684 23.7566 46.6774 24.3308 46.29L25.5932 45.4383L26.6771 49.5121L24.82 57.6561H22.2803C21.6332 57.6561 21.1085 58.1808 21.1085 58.828C21.1085 59.4752 21.6332 59.9999 22.2803 59.9999H51.7171C52.3642 59.9999 52.889 59.4752 52.889 58.828V49.6798C52.889 49.6735 52.889 49.6672 52.8889 49.6607ZM37.68 39.5897C37.7572 39.612 37.8358 39.6348 37.9136 39.6573L35.8877 43.6082L32.0966 41.0518L35.3088 38.8851C36.0551 39.1199 36.8487 39.3495 37.68 39.5897ZM30.0008 42.4654L32.3507 44.05L31.215 48.3187H28.785L27.6497 44.0513L30.0008 42.4654ZM30.0006 39.6385L26.0464 36.9721V34.5051C27.284 34.9428 28.6142 35.1829 29.9999 35.1829C31.3854 35.1829 32.7158 34.9436 33.9533 34.5059V36.9721L30.0006 39.6385ZM39.5472 16.7262C39.5311 16.716 39.5152 16.7058 39.4991 16.6957C37.0945 15.1649 35.0177 13.8429 31.7637 14.774C31.7334 14.7827 31.7034 14.7925 31.674 14.8035C30.9841 15.0626 30.3568 15.3042 29.75 15.5377C26.0442 16.9642 24.0208 17.7433 20.4527 17.643V16.7046C20.4527 11.44 24.7355 7.15702 29.9999 7.15702C35.2642 7.15702 39.5471 11.44 39.5471 16.7046V16.7262H39.5472ZM44.1677 27.1283C44.1677 27.6507 43.7427 28.0757 43.2203 28.0757H40.885C41.2148 27.3281 41.4702 26.5407 41.6408 25.7224H42.6093C43.1595 25.7224 43.6848 25.616 44.1678 25.4244V27.1283H44.1677ZM44.5098 21.4746C44.5098 22.5245 43.6573 23.3786 42.6092 23.3786H41.8899C41.8901 23.3496 41.891 18.3348 41.891 18.3348H42.6093C43.6573 18.3348 44.51 19.1874 44.51 20.2355V21.4746H44.5098ZM17.3908 23.3788C16.3428 23.3788 15.4901 22.5246 15.4901 21.4747V20.2357C15.4901 19.1875 16.3427 18.3349 17.3908 18.3349H18.109C18.109 18.3349 18.11 23.3497 18.1102 23.3788H17.3908ZM18.1309 15.991H17.3907C16.8428 15.991 16.3196 16.0965 15.8384 16.2863C15.9595 8.57769 22.2651 2.34376 30 2.34376C37.7371 2.34376 44.0445 8.57839 44.1647 16.2876C43.6827 16.0969 43.1582 15.991 42.6092 15.991H41.8689C41.4986 9.76504 36.317 4.81326 30 4.81326C23.6828 4.81326 18.5013 9.76515 18.1309 15.991ZM20.5232 24.4317C20.5231 24.4305 20.5229 24.4294 20.5228 24.4282C20.4783 24.0552 20.4528 23.6764 20.4528 23.2917V19.9866C24.4621 20.0844 26.8538 19.1642 30.592 17.7251C31.1808 17.4985 31.7893 17.2642 32.4523 17.015C34.6659 16.3971 35.9396 17.2081 38.2405 18.6728C38.6398 18.927 39.0777 19.2056 39.5472 19.4916V23.2917C39.5472 25.0344 39.0756 26.668 38.2568 28.0758H30C29.3529 28.0758 28.8281 28.6004 28.8281 29.2477C28.8281 29.8949 29.3529 30.4195 30 30.4195H36.3427C34.6549 31.9232 32.4328 32.8392 30 32.8392C25.1216 32.8391 21.0887 29.1603 20.5232 24.4317ZM24.115 43.6083L22.087 39.6571C22.1646 39.6347 22.2428 39.612 22.3199 39.5897C23.1513 39.3495 23.9449 39.1198 24.6914 38.885L27.9049 41.052L24.115 43.6083ZM27.224 57.6562L28.8188 50.6625H31.1815L32.7787 57.6562H27.224ZM50.5453 57.6562H35.1829L33.3228 49.512L34.4072 45.4367L35.6727 46.2901C36.2472 46.6774 37.0552 46.4684 37.3706 45.8532L40.1988 40.3373C42.3906 41.0192 44.6141 41.8342 46.4329 42.9782C49.1892 44.7119 50.4962 46.8447 50.5455 49.6897V57.6562H50.5453Z" fill="url(#paint0_linear)"/>
<path d="M45.9175 51.7965H40.0116C39.3645 51.7965 38.8397 52.3212 38.8397 52.9684C38.8397 53.6156 39.3645 54.1403 40.0116 54.1403H45.9175C46.5646 54.1403 47.0894 53.6156 47.0894 52.9684C47.0894 52.3212 46.5647 51.7965 45.9175 51.7965Z" fill="url(#paint1_linear)"/>
<path d="M17.0189 57.6562C16.3718 57.6562 15.847 58.1809 15.847 58.8281C15.847 59.4754 16.3718 60 17.0189 60H17.0221C17.6693 60 18.1923 59.4754 18.1923 58.8281C18.1923 58.1809 17.666 57.6562 17.0189 57.6562Z" fill="url(#paint2_linear)"/>
<defs>
<linearGradient id="paint0_linear" x1="30" y1="0" x2="30.0023" y2="60" gradientUnits="userSpaceOnUse">
<stop stop-color="#DA4453"/>
<stop offset="0.987061" stop-color="#89216B"/>
</linearGradient>
<linearGradient id="paint1_linear" x1="42.9646" y1="51.7965" x2="42.9646" y2="54.1403" gradientUnits="userSpaceOnUse">
<stop stop-color="#DA4453"/>
<stop offset="0.987061" stop-color="#89216B"/>
</linearGradient>
<linearGradient id="paint2_linear" x1="17.0196" y1="57.6563" x2="17.0197" y2="60" gradientUnits="userSpaceOnUse">
<stop stop-color="#DA4453"/>
<stop offset="0.987061" stop-color="#89216B"/>
</linearGradient>
</defs>
</svg>
