<svg width="60" height="60" viewBox="0 0 60 60" fill="none" xmlns="http://www.w3.org/2000/svg">
<g clip-path="url(#clip0)">
<path d="M16.1719 42.7148C11.7401 42.8988 11.7435 49.2122 16.1719 49.3945H25.3125C29.7443 49.2105 29.7409 42.8972 25.3125 42.7148H16.1719ZM26.8945 46.0547C26.8945 46.927 26.1848 47.6367 25.3125 47.6367H16.1719C14.0726 47.5496 14.0742 44.5589 16.1719 44.4727H25.3125C26.1848 44.4727 26.8945 45.1823 26.8945 46.0547Z" fill="url(#paint0_linear)"/>
<path d="M54.1839 9.31641H49.7099C48.5461 9.35672 48.547 11.0344 49.7099 11.0742H54.1839C54.9677 11.0742 55.6055 11.7118 55.6055 12.4958V36.0198C55.6055 36.8037 54.9678 37.4414 54.1839 37.4414H13.7849C13.001 37.4414 12.3633 36.8038 12.3633 36.0198V34.8429H21.7969C27.0062 34.6266 27.0022 27.2057 21.7969 26.9913H12.3633V12.4958C12.3633 11.712 13.0009 11.0742 13.7849 11.0742H45.5784C46.7422 11.0339 46.7413 9.35625 45.5784 9.31641H38.8477V5.56641C38.8477 2.49715 36.3505 0 33.2812 0H8.20312C5.13387 0 2.63672 2.49715 2.63672 5.56641V10.61C2.67703 11.7738 4.35469 11.7729 4.39453 10.61V5.56641C4.39453 3.46629 6.10301 1.75781 8.20312 1.75781H33.2812C35.3814 1.75781 37.0898 3.46629 37.0898 5.56641V9.31641H35.8008V5.56641C35.8008 4.17715 34.6705 3.04688 33.2812 3.04688H28.582C27.9342 3.04688 27.3568 3.45809 27.145 4.07121L26.5819 5.70938H14.9023L14.3387 4.07004C14.1273 3.45809 13.55 3.04699 12.9021 3.04699H8.20312C6.81387 3.04699 5.68359 4.17727 5.68359 5.56652V54.4337C5.68359 55.823 6.81387 56.9532 8.20312 56.9532H33.2812C34.6705 56.9532 35.8008 55.823 35.8008 54.4337V51.6857C35.7605 50.5219 34.0828 50.5228 34.043 51.6857V54.4337C34.043 54.8537 33.7013 55.1954 33.2812 55.1954H8.20312C7.78312 55.1954 7.44141 54.8537 7.44141 54.4337V5.56652C7.44141 5.14652 7.78312 4.8048 8.20312 4.8048H12.7327L13.2962 6.44402C13.5075 7.05609 14.0848 7.46719 14.7328 7.46719H26.7516C27.3995 7.46719 27.9769 7.05598 28.1886 6.44285L28.7517 4.80469H33.2812C33.7013 4.80469 34.043 5.14641 34.043 5.56641V9.31641H13.7849C12.0318 9.31641 10.6055 10.7427 10.6055 12.4958V36.0198C10.6055 37.7729 12.0318 39.1992 13.7849 39.1992H34.043V47.5867C34.0833 48.7505 35.7609 48.7495 35.8008 47.5867V39.1992H37.0898V54.4336C37.0898 56.5337 35.3814 58.2422 33.2812 58.2422H8.20312C6.10301 58.2422 4.39453 56.5337 4.39453 54.4336V14.7656C4.35422 13.6018 2.67656 13.6028 2.63672 14.7656V54.4336C2.63672 57.5029 5.13387 60 8.20312 60H33.2812C36.3505 60 38.8477 57.5029 38.8477 54.4336V39.1992H54.1839C55.937 39.1992 57.3633 37.7729 57.3633 36.0198V12.4958C57.3633 10.7427 55.937 9.31641 54.1839 9.31641ZM21.7969 28.7491C24.6737 28.8686 24.6715 32.9667 21.7969 33.0851H12.3633V28.7491H21.7969Z" fill="url(#paint1_linear)"/>
<path d="M40.6852 35.1275C41.1386 35.3005 41.6466 35.0727 41.8194 34.619L42.2377 33.5208H45.1137L45.5272 34.6166C45.6981 35.0753 46.2176 35.299 46.6598 35.1285C47.1139 34.9571 47.3432 34.4501 47.1717 33.9958L44.6497 27.313C44.6468 27.3049 44.6435 27.2968 44.6402 27.2887C44.4803 26.9003 44.1056 26.6494 43.6855 26.6494H43.6841C43.2634 26.6498 42.8887 26.9018 42.7296 27.2913C42.7269 27.2979 42.7243 27.3043 42.7219 27.3109L40.1767 33.9934C40.0038 34.4469 40.2316 34.9547 40.6852 35.1275ZM43.6822 29.7279L44.4503 31.763H42.9071L43.6822 29.7279Z" fill="url(#paint2_linear)"/>
<path d="M48.7109 31.1045L48.703 34.304C48.7018 34.7895 49.0944 35.1839 49.5797 35.1851H49.5819C50.0664 35.1851 50.4596 34.793 50.4608 34.3084L50.4687 31.1057L52.4742 28.0248C52.739 27.6179 52.624 27.0736 52.2172 26.8088C51.8105 26.5437 51.2659 26.6589 51.0012 27.0658L49.5893 29.2345L48.1614 27.0476C47.8957 26.6411 47.3515 26.527 46.9448 26.7921C46.5384 27.0576 46.4241 27.6021 46.6894 28.0086L48.7109 31.1045Z" fill="url(#paint3_linear)"/>
<path d="M35.2057 34.3062C35.246 35.47 36.9237 35.469 36.9635 34.3062V32.2362C37.3346 32.2343 37.7367 32.2327 37.9718 32.2327C41.7254 32.0787 41.7237 26.8024 37.9718 26.6493H36.0846C35.6114 26.6399 35.1949 27.0579 35.2057 27.5309V34.3062ZM37.9718 28.4071C38.5525 28.4071 39.0431 28.8805 39.0431 29.4409C39.0431 30.0013 38.5525 30.4747 37.9718 30.4747C37.7382 30.4747 37.341 30.4764 36.9718 30.4782C36.9671 29.6063 36.9688 29.3053 36.9661 28.407H37.9718V28.4071Z" fill="url(#paint4_linear)"/>
<path d="M17.4609 13.8867C16.5886 13.8867 15.8789 14.5964 15.8789 15.4688V20.1562C15.8789 21.0286 16.5886 21.7383 17.4609 21.7383H24.7266C25.5989 21.7383 26.3086 21.0286 26.3086 20.1562V15.4688C26.3086 14.5964 25.5989 13.8867 24.7266 13.8867H17.4609ZM24.5508 19.9805H17.6367V15.6445H24.5508V19.9805Z" fill="url(#paint5_linear)"/>
<path d="M32.0981 16.883V18.2893C32.1384 19.4531 33.8161 19.4522 33.8559 18.2893V16.883C33.8157 15.7193 32.138 15.7202 32.0981 16.883Z" fill="url(#paint6_linear)"/>
<path d="M47.4734 19.1682C47.9589 19.1682 48.3523 18.7748 48.3523 18.2893V16.883C48.312 15.7193 46.6343 15.7202 46.5945 16.883V18.2893C46.5945 18.7748 46.988 19.1682 47.4734 19.1682Z" fill="url(#paint7_linear)"/>
<path d="M51.4854 18.2893V16.8831C51.4451 15.7193 49.7674 15.7202 49.7276 16.8831V18.2893C49.7678 19.4531 51.4455 19.4523 51.4854 18.2893Z" fill="url(#paint8_linear)"/>
<path d="M38.405 18.2893V16.8831C38.3647 15.7193 36.6871 15.7202 36.6472 16.8831V18.2893C36.6874 19.4531 38.3652 19.4523 38.405 18.2893Z" fill="url(#paint9_linear)"/>
<path d="M40.8469 19.1682C41.3324 19.1682 41.7258 18.7748 41.7258 18.2893V16.883C41.6855 15.7193 40.0078 15.7202 39.968 16.883V18.2893C39.968 18.7748 40.3614 19.1682 40.8469 19.1682Z" fill="url(#paint10_linear)"/>
</g>
<defs>
<linearGradient id="paint0_linear" x1="20.7422" y1="42.7148" x2="20.7423" y2="49.3945" gradientUnits="userSpaceOnUse">
<stop stop-color="#DA4453"/>
<stop offset="0.987061" stop-color="#89216B"/>
</linearGradient>
<linearGradient id="paint1_linear" x1="30" y1="0" x2="30.002" y2="60" gradientUnits="userSpaceOnUse">
<stop stop-color="#DA4453"/>
<stop offset="0.987061" stop-color="#89216B"/>
</linearGradient>
<linearGradient id="paint2_linear" x1="43.6737" y1="26.6494" x2="43.674" y2="35.1855" gradientUnits="userSpaceOnUse">
<stop stop-color="#DA4453"/>
<stop offset="0.987061" stop-color="#89216B"/>
</linearGradient>
<linearGradient id="paint3_linear" x1="49.5815" y1="26.6492" x2="49.5819" y2="35.1851" gradientUnits="userSpaceOnUse">
<stop stop-color="#DA4453"/>
<stop offset="0.987061" stop-color="#89216B"/>
</linearGradient>
<linearGradient id="paint4_linear" x1="37.9959" y1="26.6491" x2="37.9963" y2="35.1787" gradientUnits="userSpaceOnUse">
<stop stop-color="#DA4453"/>
<stop offset="0.987061" stop-color="#89216B"/>
</linearGradient>
<linearGradient id="paint5_linear" x1="21.0937" y1="13.8867" x2="21.0939" y2="21.7383" gradientUnits="userSpaceOnUse">
<stop stop-color="#DA4453"/>
<stop offset="0.987061" stop-color="#89216B"/>
</linearGradient>
<linearGradient id="paint6_linear" x1="32.977" y1="16.0106" x2="32.9772" y2="19.1618" gradientUnits="userSpaceOnUse">
<stop stop-color="#DA4453"/>
<stop offset="0.987061" stop-color="#89216B"/>
</linearGradient>
<linearGradient id="paint7_linear" x1="47.4734" y1="16.0106" x2="47.4735" y2="19.1682" gradientUnits="userSpaceOnUse">
<stop stop-color="#DA4453"/>
<stop offset="0.987061" stop-color="#89216B"/>
</linearGradient>
<linearGradient id="paint8_linear" x1="50.6065" y1="16.0106" x2="50.6067" y2="19.1618" gradientUnits="userSpaceOnUse">
<stop stop-color="#DA4453"/>
<stop offset="0.987061" stop-color="#89216B"/>
</linearGradient>
<linearGradient id="paint9_linear" x1="37.5261" y1="16.0106" x2="37.5263" y2="19.1618" gradientUnits="userSpaceOnUse">
<stop stop-color="#DA4453"/>
<stop offset="0.987061" stop-color="#89216B"/>
</linearGradient>
<linearGradient id="paint10_linear" x1="40.8469" y1="16.0106" x2="40.847" y2="19.1682" gradientUnits="userSpaceOnUse">
<stop stop-color="#DA4453"/>
<stop offset="0.987061" stop-color="#89216B"/>
</linearGradient>
<clipPath id="clip0">
<rect width="60" height="60" fill="white"/>
</clipPath>
</defs>
</svg>
