<svg width="60" height="60" viewBox="0 0 60 60" fill="none" xmlns="http://www.w3.org/2000/svg">
<g clip-path="url(#clip0)">
<path d="M36.0066 10.1819C35.9927 10.1678 35.9787 10.1538 35.9645 10.1399C34.4301 8.63297 31.9712 8.63297 30.4368 10.1399L30.1103 10.4624L29.7839 10.1399C28.2495 8.63297 25.7906 8.63297 24.2562 10.1399C22.7385 11.6343 22.7196 14.0762 24.2142 15.5939C24.228 15.608 24.2421 15.622 24.2562 15.6359L29.4068 20.7263C29.7966 21.112 30.4243 21.112 30.814 20.7263L35.9647 15.6359C37.4822 14.1415 37.501 11.6996 36.0066 10.1819ZM34.5831 14.1872C34.5746 14.1959 34.5659 14.2045 34.5573 14.213L30.1103 18.6077L25.6633 14.213C24.9314 13.4954 24.9199 12.3204 25.6375 11.5885C25.646 11.5799 25.6547 11.5713 25.6633 11.5628C26.4168 10.824 27.6231 10.824 28.3766 11.5628L29.4066 12.5811C29.7966 12.9661 30.4238 12.9661 30.8138 12.5811L31.8438 11.5628C32.5976 10.8245 33.8034 10.8245 34.5571 11.5628C35.2891 12.2803 35.3007 13.4554 34.5831 14.1872Z" fill="url(#paint0_linear)"/>
<path d="M43.5222 11.6223L41.5872 10.7711C41.4963 10.4299 41.3952 10.1065 41.2828 9.79574L42.3553 7.9517C42.5335 7.64586 42.5366 7.2686 42.3635 6.95975C41.8467 6.04036 41.2297 5.18101 40.5238 4.39745C40.2823 4.12564 39.9114 4.00793 39.5573 4.09061L37.5177 4.55582C37.2642 4.35255 37.0007 4.15879 36.7277 3.97441L36.5308 1.83028C36.4983 1.4749 36.2786 1.16393 35.9546 1.01433C35.0085 0.572269 34.015 0.239536 32.9936 0.0223831C32.6378 -0.0544208 32.2684 0.0701667 32.0319 0.346861L30.6115 1.98964H29.6939L28.2738 0.346736C28.0371 0.070667 27.6682 -0.0537954 27.3126 0.022258C26.2907 0.239285 25.297 0.572144 24.3505 1.0142C24.0265 1.16381 23.807 1.4749 23.7745 1.83015L23.5776 3.97428C23.3039 4.15904 23.0406 4.3528 22.7875 4.55569L20.7485 4.09049C20.3945 4.00793 20.0236 4.12564 19.7819 4.39733C19.0757 5.18075 18.4585 6.04011 17.9418 6.95963C17.7686 7.26835 17.7719 7.64574 17.95 7.95158L19.0225 9.79562C18.9111 10.1045 18.811 10.4249 18.7205 10.763L16.7104 11.6161C16.3406 11.7733 16.1006 12.136 16.1006 12.5377V15.4831C16.1006 15.8848 16.3406 16.2477 16.7104 16.4046L18.7205 17.2577C18.811 17.5958 18.9111 17.9164 19.0225 18.2252L17.95 20.0692C17.7716 20.3754 17.7688 20.7531 17.9421 21.0622C18.4591 21.9808 19.0758 22.8398 19.7808 23.6236C20.0222 23.8959 20.3936 24.0137 20.7477 23.9304L22.7873 23.4652C23.0408 23.6685 23.3043 23.8624 23.5773 24.0466L23.7742 26.1908C23.8067 26.5461 24.0264 26.8571 24.3502 27.0067C25.2964 27.4488 26.2899 27.7815 27.3113 27.9987C27.667 28.0728 28.035 27.9487 28.2729 27.6742L29.6937 26.0304H30.6109L32.0318 27.6742C32.2219 27.8938 32.4981 28.02 32.7887 28.0202C32.8575 28.0203 32.9261 28.013 32.9934 27.9987C34.0149 27.7815 35.0084 27.4488 35.9545 27.0067C36.2785 26.8571 36.498 26.546 36.5307 26.1908L36.7276 24.0466C37.0013 23.8619 37.2646 23.6685 37.5176 23.4661L39.5567 23.9303C39.9108 24.0135 40.2819 23.8956 40.5232 23.6235C41.2295 22.84 41.8467 21.9807 42.3634 21.0612C42.5365 20.7523 42.5333 20.375 42.3551 20.0692L41.2826 18.2252C41.395 17.9144 41.4957 17.591 41.5866 17.2499L43.5221 16.3986C43.8855 16.2391 44.1202 15.8798 44.1201 15.483V12.5375C44.1204 12.1411 43.8857 11.7818 43.5222 11.6223ZM42.119 14.8307L40.3316 15.6163C40.042 15.7435 39.8297 16.0001 39.7589 16.3082C39.6362 16.8617 39.4667 17.4037 39.2522 17.9285C39.1321 18.2172 39.154 18.5455 39.3114 18.8158L40.3306 20.5691C40.0523 21.0135 39.7459 21.4398 39.4134 21.8453L37.478 21.4046C37.1646 21.3316 36.8353 21.415 36.5945 21.6284C36.1754 21.9957 35.7261 22.3268 35.2513 22.6184C34.9832 22.7835 34.8085 23.0652 34.7797 23.3787L34.5921 25.4192C34.1221 25.6125 33.6401 25.7751 33.1492 25.9059L31.826 24.3756C31.636 24.1558 31.3597 24.0295 31.0691 24.0296H29.2363C28.9457 24.0295 28.6695 24.1557 28.4794 24.3756L27.1562 25.9059C26.6652 25.7751 26.1833 25.6126 25.7133 25.4192L25.5257 23.3787C25.4971 23.0651 25.3223 22.7834 25.0542 22.6184C24.5792 22.3264 24.1293 21.9953 23.7095 21.6284C23.4691 21.4152 23.1402 21.3317 22.8271 21.4046L20.8921 21.8453C20.5593 21.4397 20.253 21.013 19.9749 20.5681L20.9941 18.8158C21.1515 18.5455 21.1734 18.2173 21.0533 17.9285C20.8388 17.4037 20.6693 16.8616 20.5466 16.3082C20.4747 15.9955 20.2575 15.736 19.9622 15.6105L18.102 14.8209V13.2005L19.9622 12.411C20.2575 12.2854 20.4747 12.0259 20.5466 11.7132C20.6693 11.1597 20.8388 10.6177 21.0533 10.093C21.1734 9.80425 21.1515 9.4759 20.9941 9.20558L19.9749 7.45235C20.2532 7.00791 20.5596 6.58161 20.8921 6.17608L22.8276 6.61676C23.1409 6.68969 23.4701 6.60626 23.711 6.39298C24.1301 6.02572 24.5794 5.69462 25.0542 5.40304C25.3222 5.23779 25.4968 4.95622 25.5258 4.64275L25.7135 2.60232C26.1837 2.40918 26.6659 2.24632 27.1568 2.11473L28.4795 3.64505C28.6695 3.86483 28.9458 3.99117 29.2364 3.99104H31.0692C31.3598 3.99117 31.636 3.86496 31.8261 3.64505L33.1493 2.11473C33.6401 2.24632 34.1221 2.40918 34.5922 2.60232L34.7798 4.64275C34.8085 4.95635 34.9832 5.23805 35.2514 5.40304C35.7265 5.69499 36.1763 6.0261 36.5961 6.39298C36.8364 6.60651 37.1655 6.68994 37.4786 6.61676L39.4141 6.17608C39.7464 6.58161 40.0526 7.00791 40.3307 7.45235L39.3115 9.20558C39.1541 9.4759 39.1322 9.80413 39.2523 10.093C39.4669 10.6177 39.6365 11.1598 39.7596 11.7132C39.8304 12.0214 40.0428 12.278 40.3322 12.4051L42.1191 13.1908V14.8307H42.119Z" fill="url(#paint1_linear)"/>
<path d="M53.5709 27.6269C51.4652 26.4966 48.8422 27.26 47.6719 29.3437L44.6527 34.7196C44.1713 35.2663 43.5458 35.6663 42.8476 35.8737L29.2156 39.9518C28.9224 40.0399 28.6059 40.0025 28.3415 39.8482C28.0614 39.6867 27.8615 39.4158 27.7898 39.1006C27.6355 38.4774 28.0076 37.8452 28.6273 37.6777L34.781 35.7878C36.457 35.3164 37.4719 33.6169 37.0917 31.9178C36.6713 30.192 34.9315 29.1337 33.2056 29.5541C33.1515 29.5673 33.0978 29.5819 33.0444 29.5979L19.834 33.5607C15.187 34.832 11.4524 38.2901 9.82847 42.8259L4.1755 58.6358C3.98924 59.1561 4.26018 59.7289 4.78055 59.9152C4.88812 59.9537 5.00145 59.9735 5.11566 59.9737L18.1004 60.0001H18.1024C18.5764 60.0002 18.9854 59.6676 19.0821 59.2037L19.7721 55.884C19.997 54.497 20.969 53.3472 22.2992 52.8946L48.4137 44.3182C49.3157 44.0222 50.072 43.3953 50.5304 42.5641L55.3614 33.5666C56.507 31.4318 55.7054 28.7727 53.5709 27.6269ZM53.6303 32.5585C53.62 32.5793 53.6092 32.5999 53.5983 32.6204L48.7747 41.6033C48.5604 41.9889 48.2084 42.2793 47.7891 42.4164L21.6654 50.9958C19.643 51.6754 18.1589 53.4135 17.8048 55.5175L17.2888 57.9967L6.53716 57.9752L11.7127 43.5002C13.1209 39.5723 16.3588 36.5798 20.3853 35.4848L33.6192 31.5153C33.9368 31.4181 34.2805 31.4573 34.5681 31.6237C34.861 31.7921 35.0716 32.0739 35.15 32.4026C35.2623 33.0671 34.8469 33.7068 34.1942 33.8744L28.0659 35.7566C26.3716 36.2438 25.3931 38.0123 25.8804 39.7066C26.1075 40.4964 26.6304 41.1682 27.3403 41.5821C28.0809 42.015 28.9685 42.1192 29.7892 41.8694L43.4209 37.7913C44.5216 37.4638 45.502 36.821 46.2413 35.9424C46.2822 35.8942 46.3182 35.8422 46.3487 35.787L49.4173 30.3232C50.0393 29.212 51.4255 28.7871 52.5635 29.3586H52.564C53.742 29.9475 54.2196 31.3803 53.6303 32.5585Z" fill="url(#paint2_linear)"/>
</g>
<defs>
<linearGradient id="paint0_linear" x1="30.1103" y1="9.0097" x2="30.1107" y2="21.0156" gradientUnits="userSpaceOnUse">
<stop stop-color="#DA4453"/>
<stop offset="0.987061" stop-color="#89216B"/>
</linearGradient>
<linearGradient id="paint1_linear" x1="30.1104" y1="6.10352e-05" x2="30.1112" y2="28.0202" gradientUnits="userSpaceOnUse">
<stop stop-color="#DA4453"/>
<stop offset="0.987061" stop-color="#89216B"/>
</linearGradient>
<linearGradient id="paint2_linear" x1="30.0002" y1="27.1046" x2="30.0008" y2="60.0001" gradientUnits="userSpaceOnUse">
<stop stop-color="#DA4453"/>
<stop offset="0.987061" stop-color="#89216B"/>
</linearGradient>
<clipPath id="clip0">
<rect width="60" height="60" fill="white"/>
</clipPath>
</defs>
</svg>
