<svg width="60" height="60" viewBox="0 0 60 60" fill="none" xmlns="http://www.w3.org/2000/svg">
<path d="M14.0001 39.5C10.6911 39.5 8.00009 42.1909 8.00009 45.5C8.00009 48.809 10.6911 51.5 14.0001 51.5C17.3091 51.5 20.0001 48.809 20.0001 45.5C20.0001 42.1909 17.309 39.5 14.0001 39.5ZM14.0001 49.4999C11.794 49.4999 10.0001 47.7059 10.0001 45.5C10.0001 43.2939 11.7942 41.5 14.0001 41.5C16.206 41.5 18.0001 43.294 18.0001 45.5C18.0001 47.7059 16.206 49.4999 14.0001 49.4999Z" fill="url(#paint0_linear)"/>
<path d="M48 39.5C44.691 39.5 42 42.1909 42 45.5C42 48.809 44.691 51.5 48 51.5C51.309 51.5 54 48.809 54 45.5C54 42.1909 51.309 39.5 48 39.5ZM48 49.4999C45.7939 49.4999 44 47.7059 44 45.5C44 43.2939 45.7941 41.5 48 41.5C50.2061 41.5 52 43.294 52 45.5C52 47.7059 50.2061 49.4999 48 49.4999Z" fill="url(#paint1_linear)"/>
<path d="M59.841 33.959L50.841 19.9589C50.657 19.6729 50.3401 19.4999 50 19.4999H39.0001C38.447 19.4999 38.0001 19.9479 38.0001 20.4999V45.4998C38.0001 46.0528 38.447 46.4998 39.0001 46.4998H43V44.4998H40V21.4999H49.454L58 34.7939V44.5H53V46.4999H59C59.553 46.4999 59.9999 46.053 59.9999 45.4999V34.4999C60.0001 34.3089 59.9451 34.1199 59.841 33.959Z" fill="url(#paint2_linear)"/>
<path d="M44.0001 32.5V25.5H52.0001V23.4999H43.0001C42.4471 23.4999 42.0002 23.9479 42.0002 24.4999V33.4999C42.0002 34.0529 42.4471 34.4999 43.0001 34.4999H58.0001V32.4999H44.0001V32.5Z" fill="url(#paint3_linear)"/>
<path d="M39 12.5001H0.999961C0.448008 12.5001 0 12.9481 0 13.5V45.5001C0 46.0531 0.448008 46.5 0.999961 46.5H9V44.5H2.00004V14.5H38V44.5H19V46.5H39C39.553 46.5 40 46.0531 40 45.5001V13.5C40 12.9481 39.553 12.5001 39 12.5001Z" fill="url(#paint4_linear)"/>
<path d="M6.99994 40.5001H0.999939V42.5001H6.99994V40.5001Z" fill="url(#paint5_linear)"/>
<path d="M38 40.5001H21V42.5001H38V40.5001Z" fill="url(#paint6_linear)"/>
<path d="M58.9999 40.5001H54.9999V42.5001H58.9999V40.5001Z" fill="url(#paint7_linear)"/>
<path d="M39 16.5H3.99994V18.5H39V16.5Z" fill="url(#paint8_linear)"/>
<path d="M15 44.4998H13V46.4999H15V44.4998Z" fill="url(#paint9_linear)"/>
<path d="M49.0001 44.4998H47.0001V46.4999H49.0001V44.4998Z" fill="url(#paint10_linear)"/>
<path d="M18 8.49994H3.99994V10.5H18V8.49994Z" fill="url(#paint11_linear)"/>
<path d="M2.00004 8.49994H0V10.5H2.00004V8.49994Z" fill="url(#paint12_linear)"/>
<defs>
<linearGradient id="paint0_linear" x1="14.0001" y1="39.5" x2="14.0005" y2="51.5" gradientUnits="userSpaceOnUse">
<stop stop-color="#DA4453"/>
<stop offset="0.987061" stop-color="#89216B"/>
</linearGradient>
<linearGradient id="paint1_linear" x1="48" y1="39.5" x2="48.0004" y2="51.5" gradientUnits="userSpaceOnUse">
<stop stop-color="#DA4453"/>
<stop offset="0.987061" stop-color="#89216B"/>
</linearGradient>
<linearGradient id="paint2_linear" x1="49" y1="19.4999" x2="49.001" y2="46.4999" gradientUnits="userSpaceOnUse">
<stop stop-color="#DA4453"/>
<stop offset="0.987061" stop-color="#89216B"/>
</linearGradient>
<linearGradient id="paint3_linear" x1="50.0001" y1="23.4999" x2="50.0004" y2="34.4999" gradientUnits="userSpaceOnUse">
<stop stop-color="#DA4453"/>
<stop offset="0.987061" stop-color="#89216B"/>
</linearGradient>
<linearGradient id="paint4_linear" x1="20" y1="12.5001" x2="20.0008" y2="46.5" gradientUnits="userSpaceOnUse">
<stop stop-color="#DA4453"/>
<stop offset="0.987061" stop-color="#89216B"/>
</linearGradient>
<linearGradient id="paint5_linear" x1="3.99994" y1="40.5001" x2="3.99996" y2="42.5001" gradientUnits="userSpaceOnUse">
<stop stop-color="#DA4453"/>
<stop offset="0.987061" stop-color="#89216B"/>
</linearGradient>
<linearGradient id="paint6_linear" x1="29.5" y1="40.5001" x2="29.5" y2="42.5001" gradientUnits="userSpaceOnUse">
<stop stop-color="#DA4453"/>
<stop offset="0.987061" stop-color="#89216B"/>
</linearGradient>
<linearGradient id="paint7_linear" x1="56.9999" y1="40.5001" x2="56.9999" y2="42.5001" gradientUnits="userSpaceOnUse">
<stop stop-color="#DA4453"/>
<stop offset="0.987061" stop-color="#89216B"/>
</linearGradient>
<linearGradient id="paint8_linear" x1="21.5" y1="16.5" x2="21.5" y2="18.5" gradientUnits="userSpaceOnUse">
<stop stop-color="#DA4453"/>
<stop offset="0.987061" stop-color="#89216B"/>
</linearGradient>
<linearGradient id="paint9_linear" x1="14" y1="44.4998" x2="14" y2="46.4999" gradientUnits="userSpaceOnUse">
<stop stop-color="#DA4453"/>
<stop offset="0.987061" stop-color="#89216B"/>
</linearGradient>
<linearGradient id="paint10_linear" x1="48.0001" y1="44.4998" x2="48.0001" y2="46.4999" gradientUnits="userSpaceOnUse">
<stop stop-color="#DA4453"/>
<stop offset="0.987061" stop-color="#89216B"/>
</linearGradient>
<linearGradient id="paint11_linear" x1="11" y1="8.49994" x2="11" y2="10.5" gradientUnits="userSpaceOnUse">
<stop stop-color="#DA4453"/>
<stop offset="0.987061" stop-color="#89216B"/>
</linearGradient>
<linearGradient id="paint12_linear" x1="1.00002" y1="8.49994" x2="1.00008" y2="10.5" gradientUnits="userSpaceOnUse">
<stop stop-color="#DA4453"/>
<stop offset="0.987061" stop-color="#89216B"/>
</linearGradient>
</defs>
</svg>
