<?xml version="1.0" encoding="utf-8"?><svg viewBox="0 0 60 60" xmlns="http://www.w3.org/2000/svg" xmlns:xlink="http://www.w3.org/1999/xlink"><style>:root>svg{display:none}:root>svg:target{display:block}</style><svg fill="none" viewBox="0 0 40 40" id="arrow" xmlns="http://www.w3.org/2000/svg"><path d="M20 40c11.046 0 20-8.954 20-20C40 8.955 31.046 0 20 0 8.955 0 0 8.955 0 20c0 11.046 8.955 20 20 20zm0-36.667c9.204 0 16.667 7.463 16.667 16.667S29.204 36.667 20 36.667 3.333 29.204 3.333 20 10.796 3.333 20 3.333z" fill="url(#apaint0_linear)"/><path d="M22.155 29.512a1.667 1.667 0 002.357-2.357L17.357 20l7.155-7.155a1.667 1.667 0 00-2.357-2.357l-8.334 8.334c-.65.65-.65 1.706 0 2.357l8.334 8.333z" fill="url(#apaint1_linear)"/><defs><linearGradient id="apaint0_linear" x1="20" y1="40" x2="19.999" y2="0" gradientUnits="userSpaceOnUse"><stop stop-color="#FC3"/><stop offset="1" stop-color="#FFB347"/></linearGradient><linearGradient id="apaint1_linear" x1="19.167" y1="30" x2="19.166" y2="10" gradientUnits="userSpaceOnUse"><stop stop-color="#FC3"/><stop offset="1" stop-color="#FFB347"/></linearGradient></defs></svg><svg fill="none" viewBox="0 0 20 16" id="check" xmlns="http://www.w3.org/2000/svg"><path d="M19.414 4.14L8.864 14.69a2.002 2.002 0 01-2.831 0L.586 9.245a2.002 2.002 0 012.83-2.831l4.032 4.032 9.135-9.135a2.002 2.002 0 012.831 2.83z" fill="#EDEDED"/></svg><svg fill="none" viewBox="0 0 40 40" id="insta" xmlns="http://www.w3.org/2000/svg"><path d="M30.625 40H9.375C4.205 40 0 35.794 0 30.625V9.375C0 4.205 4.206 0 9.375 0h21.25C35.795 0 40 4.206 40 9.375v21.25C40 35.795 35.794 40 30.625 40zM9.375 3.125a6.257 6.257 0 00-6.25 6.25v21.25a6.257 6.257 0 006.25 6.25h21.25a6.257 6.257 0 006.25-6.25V9.375a6.257 6.257 0 00-6.25-6.25H9.375zm21.64 3.906a1.953 1.953 0 100 3.907 1.953 1.953 0 000-3.907zM20 30.156C14.4 30.156 9.844 25.6 9.844 20 10.402 6.526 29.6 6.53 30.156 20c0 5.6-4.556 10.156-10.156 10.156zm0-17.187A7.04 7.04 0 0012.969 20c.386 9.328 13.677 9.325 14.062 0A7.04 7.04 0 0020 12.969z" fill="url(#cpaint0_linear)"/><defs><linearGradient id="cpaint0_linear" x1="20" y1="0" x2="20.001" y2="40" gradientUnits="userSpaceOnUse"><stop stop-color="#DA4453"/><stop offset=".987" stop-color="#89216B"/></linearGradient></defs></svg><svg fill="none" viewBox="0 0 60 60" id="operator" xmlns="http://www.w3.org/2000/svg"><path d="M52.889 49.66c-.134-8.153-8.47-10.563-14.558-12.322-.71-.205-1.394-.403-2.034-.6v-3.364a11.986 11.986 0 003.215-2.955h3.708a3.295 3.295 0 003.291-3.29v-3.985c.22-.512.343-1.077.343-1.67v-1.239a4.22 4.22 0 00-.343-1.668v-2.055C46.511 7.407 39.104 0 30 0c-9.103 0-16.508 7.407-16.508 16.512v1.996l.002.047a4.22 4.22 0 00-.348 1.68v1.24a4.25 4.25 0 004.245 4.247h.968a11.926 11.926 0 005.344 7.652v3.364c-.64.197-1.323.395-2.034.6-6.087 1.76-14.425 4.169-14.558 12.323v9.167c0 .647.525 1.172 1.172 1.172h3.474a1.172 1.172 0 000-2.344H9.455V49.69c.049-2.845 1.356-4.978 4.112-6.712 1.82-1.144 4.043-1.959 6.235-2.641l2.831 5.516a1.184 1.184 0 001.698.437l1.262-.852 1.084 4.074-1.857 8.144h-2.54a1.172 1.172 0 000 2.344h29.437c.647 0 1.172-.525 1.172-1.172V49.68v-.02zM37.68 39.59l.234.067-2.026 3.951-3.791-2.556 3.212-2.167c.746.235 1.54.465 2.371.705zM30 42.465l2.35 1.585-1.135 4.269h-2.43L27.65 44.05 30 42.465zm0-2.827l-3.954-2.666v-2.467c1.238.438 2.568.678 3.954.678 1.385 0 2.716-.24 3.953-.677v2.466l-3.952 2.666zm9.547-22.912l-.048-.03c-2.405-1.531-4.481-2.853-7.735-1.922l-.09.03c-.69.259-1.317.5-1.924.734-3.706 1.426-5.73 2.205-9.297 2.105v-.938c0-5.265 4.282-9.548 9.547-9.548 5.264 0 9.547 4.283 9.547 9.548v.021zm4.62 10.402a.948.948 0 01-.947.948h-2.335c.33-.748.585-1.535.756-2.354h.968c.55 0 1.076-.106 1.559-.298v1.704zm.343-5.653c0 1.05-.853 1.904-1.9 1.904h-.72l.001-5.044h.718c1.048 0 1.901.852 1.901 1.9v1.24zm-27.12 1.904c-1.047 0-1.9-.854-1.9-1.904v-1.24c0-1.047.853-1.9 1.9-1.9h.719l.001 5.044h-.72zm.74-7.388h-.74a4.22 4.22 0 00-1.552.295C15.96 8.578 22.265 2.344 30 2.344c7.737 0 14.044 6.234 14.165 13.944a4.219 4.219 0 00-1.556-.297h-.74C41.499 9.765 36.317 4.813 30 4.813S18.501 9.765 18.13 15.991zm2.393 8.44v-.003a9.583 9.583 0 01-.07-1.136v-3.305c4.01.097 6.4-.823 10.139-2.262.589-.227 1.197-.46 1.86-.71 2.214-.618 3.488.193 5.788 1.658.4.254.838.533 1.307.819v3.8a9.486 9.486 0 01-1.29 4.784H30a1.172 1.172 0 000 2.343h6.343A9.506 9.506 0 0130 32.84c-4.878 0-8.911-3.679-9.477-8.407zm3.592 19.177l-2.028-3.95.233-.068c.831-.24 1.625-.47 2.371-.705l3.214 2.167-3.79 2.556zm3.109 14.048l1.595-6.993h2.363l1.597 6.993h-5.555zm23.321 0H35.183l-1.86-8.144 1.084-4.075 1.266.853a1.184 1.184 0 001.698-.437l2.828-5.516c2.192.682 4.415 1.497 6.234 2.641 2.756 1.734 4.063 3.867 4.112 6.712v7.966z" fill="url(#dpaint0_linear)"/><path d="M45.917 51.797h-5.905a1.172 1.172 0 000 2.343h5.905a1.172 1.172 0 000-2.343z" fill="url(#dpaint1_linear)"/><path d="M17.019 57.656a1.172 1.172 0 000 2.344h.003a1.17 1.17 0 001.17-1.172c0-.647-.526-1.172-1.173-1.172z" fill="url(#dpaint2_linear)"/><defs><linearGradient id="dpaint0_linear" x1="30" y1="0" x2="30.002" y2="60" gradientUnits="userSpaceOnUse"><stop stop-color="#DA4453"/><stop offset=".987" stop-color="#89216B"/></linearGradient><linearGradient id="dpaint1_linear" x1="42.965" y1="51.797" x2="42.965" y2="54.14" gradientUnits="userSpaceOnUse"><stop stop-color="#DA4453"/><stop offset=".987" stop-color="#89216B"/></linearGradient><linearGradient id="dpaint2_linear" x1="17.02" y1="57.656" x2="17.02" y2="60" gradientUnits="userSpaceOnUse"><stop stop-color="#DA4453"/><stop offset=".987" stop-color="#89216B"/></linearGradient></defs></svg><svg fill="none" viewBox="0 0 60 60" id="payment" xmlns="http://www.w3.org/2000/svg"><g clip-path="url(#eclip0)"><path d="M16.172 42.715c-4.432.184-4.429 6.497 0 6.68h9.14c4.432-.184 4.429-6.498 0-6.68h-9.14zm10.723 3.34c0 .872-.71 1.582-1.582 1.582h-9.141c-2.1-.087-2.098-3.078 0-3.164h9.14c.873 0 1.582.71 1.582 1.582z" fill="url(#epaint0_linear)"/><path d="M54.184 9.316H49.71c-1.164.04-1.163 1.718 0 1.758h4.474c.784 0 1.422.638 1.422 1.422V36.02c0 .784-.638 1.421-1.422 1.421h-40.4a1.423 1.423 0 01-1.42-1.421v-1.177h9.433c5.21-.216 5.205-7.637 0-7.852h-9.434V12.496c0-.784.638-1.422 1.422-1.422h31.793c1.164-.04 1.163-1.718 0-1.758h-6.73v-3.75A5.573 5.573 0 0033.28 0H8.203a5.573 5.573 0 00-5.566 5.566v5.044c.04 1.164 1.718 1.163 1.758 0V5.566c0-2.1 1.708-3.808 3.808-3.808h25.078c2.1 0 3.809 1.708 3.809 3.808v3.75H35.8v-3.75c0-1.389-1.13-2.52-2.519-2.52h-4.699a1.52 1.52 0 00-1.437 1.025l-.563 1.638h-11.68L14.34 4.07a1.52 1.52 0 00-1.437-1.023H8.203c-1.39 0-2.52 1.13-2.52 2.52v48.867c0 1.389 1.13 2.52 2.52 2.52h25.078c1.39 0 2.52-1.131 2.52-2.52v-2.748c-.04-1.164-1.718-1.163-1.758 0v2.748c0 .42-.342.761-.762.761H8.203a.763.763 0 01-.762-.761V5.567c0-.42.342-.762.762-.762h4.53l.563 1.639a1.52 1.52 0 001.437 1.023h12.019a1.52 1.52 0 001.437-1.024l.563-1.638h4.53c.42 0 .761.341.761.761v3.75H13.785a3.183 3.183 0 00-3.18 3.18V36.02a3.183 3.183 0 003.18 3.18h20.258v8.387c.04 1.163 1.718 1.162 1.758 0v-8.388h1.289v15.235c0 2.1-1.709 3.808-3.809 3.808H8.203a3.813 3.813 0 01-3.808-3.808V14.766c-.04-1.164-1.718-1.163-1.758 0v39.668A5.573 5.573 0 008.203 60h25.078a5.573 5.573 0 005.567-5.566V39.199h15.336a3.183 3.183 0 003.18-3.18V12.497a3.183 3.183 0 00-3.18-3.18zM21.797 28.75c2.877.12 2.875 4.218 0 4.336h-9.434V28.75h9.434z" fill="url(#epaint1_linear)"/><path d="M40.685 35.127a.879.879 0 001.134-.508l.419-1.098h2.876l.413 1.096a.88.88 0 001.645-.621l-2.522-6.683a1.029 1.029 0 00-.964-.664h-.002a1.029 1.029 0 00-.962.662l-2.545 6.682a.879.879 0 00.508 1.134zm2.997-5.4l.768 2.036h-1.543l.775-2.035z" fill="url(#epaint2_linear)"/><path d="M48.71 31.105l-.007 3.199a.879.879 0 00.877.881h.002a.879.879 0 00.879-.877l.008-3.202 2.005-3.081a.879.879 0 10-1.473-.96l-1.412 2.17-1.428-2.187a.88.88 0 00-1.472.96l2.022 3.097z" fill="url(#epaint3_linear)"/><path d="M35.206 34.306c.04 1.164 1.718 1.163 1.758 0v-2.07l1.008-.003c3.753-.154 3.752-5.43 0-5.584h-1.887a.884.884 0 00-.88.882v6.775zm2.766-5.899c.58 0 1.071.474 1.071 1.034s-.49 1.034-1.071 1.034l-1 .003c-.005-.872-.003-1.173-.006-2.071h1.006z" fill="url(#epaint4_linear)"/><path d="M17.46 13.887c-.871 0-1.581.71-1.581 1.582v4.687c0 .873.71 1.582 1.582 1.582h7.266c.872 0 1.582-.71 1.582-1.582V15.47c0-.873-.71-1.582-1.582-1.582H17.46zm7.09 6.093h-6.913v-4.335h6.914v4.335z" fill="url(#epaint5_linear)"/><path d="M32.098 16.883v1.406c.04 1.164 1.718 1.163 1.758 0v-1.406c-.04-1.164-1.718-1.163-1.758 0z" fill="url(#epaint6_linear)"/><path d="M47.473 19.168a.879.879 0 00.88-.879v-1.406c-.041-1.164-1.719-1.163-1.759 0v1.406c0 .486.394.88.88.88z" fill="url(#epaint7_linear)"/><path d="M51.485 18.29v-1.407c-.04-1.164-1.718-1.163-1.757 0v1.406c.04 1.164 1.718 1.163 1.757 0z" fill="url(#epaint8_linear)"/><path d="M38.405 18.29v-1.407c-.04-1.164-1.718-1.163-1.758 0v1.406c.04 1.164 1.718 1.163 1.758 0z" fill="url(#epaint9_linear)"/><path d="M40.847 19.168a.879.879 0 00.879-.879v-1.406c-.04-1.164-1.718-1.163-1.758 0v1.406c0 .486.393.88.879.88z" fill="url(#epaint10_linear)"/></g><defs><linearGradient id="epaint0_linear" x1="20.742" y1="42.715" x2="20.742" y2="49.395" gradientUnits="userSpaceOnUse"><stop stop-color="#DA4453"/><stop offset=".987" stop-color="#89216B"/></linearGradient><linearGradient id="epaint1_linear" x1="30" y1="0" x2="30.002" y2="60" gradientUnits="userSpaceOnUse"><stop stop-color="#DA4453"/><stop offset=".987" stop-color="#89216B"/></linearGradient><linearGradient id="epaint2_linear" x1="43.674" y1="26.649" x2="43.674" y2="35.185" gradientUnits="userSpaceOnUse"><stop stop-color="#DA4453"/><stop offset=".987" stop-color="#89216B"/></linearGradient><linearGradient id="epaint3_linear" x1="49.581" y1="26.649" x2="49.582" y2="35.185" gradientUnits="userSpaceOnUse"><stop stop-color="#DA4453"/><stop offset=".987" stop-color="#89216B"/></linearGradient><linearGradient id="epaint4_linear" x1="37.996" y1="26.649" x2="37.996" y2="35.179" gradientUnits="userSpaceOnUse"><stop stop-color="#DA4453"/><stop offset=".987" stop-color="#89216B"/></linearGradient><linearGradient id="epaint5_linear" x1="21.094" y1="13.887" x2="21.094" y2="21.738" gradientUnits="userSpaceOnUse"><stop stop-color="#DA4453"/><stop offset=".987" stop-color="#89216B"/></linearGradient><linearGradient id="epaint6_linear" x1="32.977" y1="16.011" x2="32.977" y2="19.162" gradientUnits="userSpaceOnUse"><stop stop-color="#DA4453"/><stop offset=".987" stop-color="#89216B"/></linearGradient><linearGradient id="epaint7_linear" x1="47.473" y1="16.011" x2="47.474" y2="19.168" gradientUnits="userSpaceOnUse"><stop stop-color="#DA4453"/><stop offset=".987" stop-color="#89216B"/></linearGradient><linearGradient id="epaint8_linear" x1="50.606" y1="16.011" x2="50.607" y2="19.162" gradientUnits="userSpaceOnUse"><stop stop-color="#DA4453"/><stop offset=".987" stop-color="#89216B"/></linearGradient><linearGradient id="epaint9_linear" x1="37.526" y1="16.011" x2="37.526" y2="19.162" gradientUnits="userSpaceOnUse"><stop stop-color="#DA4453"/><stop offset=".987" stop-color="#89216B"/></linearGradient><linearGradient id="epaint10_linear" x1="40.847" y1="16.011" x2="40.847" y2="19.168" gradientUnits="userSpaceOnUse"><stop stop-color="#DA4453"/><stop offset=".987" stop-color="#89216B"/></linearGradient><clipPath id="eclip0"><path fill="#fff" d="M0 0h60v60H0z"/></clipPath></defs></svg><svg fill="none" viewBox="0 0 30 30" id="remove" xmlns="http://www.w3.org/2000/svg"><path d="M25.606 4.394A14.894 14.894 0 0015 0C10.991 0 7.229 1.56 4.394 4.394A14.894 14.894 0 000 15c0 4.009 1.56 7.771 4.394 10.606A14.894 14.894 0 0015 30c4.009 0 7.771-1.56 10.606-4.394A14.894 14.894 0 0030 15c0-4.009-1.56-7.771-4.394-10.606zM24.4 24.4a13.21 13.21 0 01-9.4 3.896A13.21 13.21 0 015.6 24.4C.417 19.217.417 10.783 5.6 5.6A13.21 13.21 0 0115 1.705 13.21 13.21 0 0124.4 5.6c5.183 5.183 5.183 13.617 0 18.8z" fill="#BF2557"/><path d="M21.61 8.39a.85.85 0 00-1.206 0L15 13.794 9.596 8.39a.85.85 0 00-1.206 0 .85.85 0 000 1.206L13.794 15 8.39 20.404a.85.85 0 000 1.206.858.858 0 00.6.252.832.832 0 00.6-.252l5.404-5.404 5.404 5.404a.858.858 0 00.6.252.822.822 0 00.6-.252.85.85 0 000-1.206L16.205 15l5.404-5.404a.85.85 0 000-1.206z" fill="#BF2557"/></svg><svg fill="none" viewBox="0 0 60 60" id="service" xmlns="http://www.w3.org/2000/svg"><g clip-path="url(#gclip0)"><path d="M36.007 10.182a3.945 3.945 0 00-5.57-.042l-.327.322-.326-.322a3.945 3.945 0 00-5.528 0 3.857 3.857 0 000 5.496l5.15 5.09a1 1 0 001.408 0l5.15-5.09a3.857 3.857 0 00.043-5.454zm-1.424 4.005a2.092 2.092 0 01-.026.026l-4.447 4.395-4.447-4.395a1.856 1.856 0 010-2.65 1.938 1.938 0 012.714 0l1.03 1.018c.39.385 1.017.385 1.407 0l1.03-1.018a1.939 1.939 0 012.713 0c.732.717.744 1.892.026 2.624z" fill="url(#gpaint0_linear)"/><path d="M43.522 11.622l-1.935-.85c-.09-.342-.192-.665-.304-.976l1.072-1.844a1 1 0 00.009-.992 14.289 14.289 0 00-1.84-2.563.991.991 0 00-.967-.306l-2.04.465a11.984 11.984 0 00-.79-.582l-.196-2.144a.999.999 0 00-.576-.816 13.75 13.75 0 00-2.961-.992.99.99 0 00-.962.325l-1.42 1.643h-.918L28.274.347a.993.993 0 00-.961-.325 13.75 13.75 0 00-2.962.992.999.999 0 00-.576.816l-.197 2.144c-.274.185-.537.379-.79.582l-2.04-.466a.992.992 0 00-.966.307 14.261 14.261 0 00-1.84 2.563 1 1 0 00.008.992l1.073 1.844c-.112.309-.212.629-.302.967l-2.01.853c-.37.157-.61.52-.61.922v2.945a1 1 0 00.61.922l2.01.853c.09.338.19.658.302.967L17.95 20.07a1 1 0 00-.008.993 14.368 14.368 0 001.839 2.562.99.99 0 00.967.306l2.04-.465c.253.204.516.397.79.582l.196 2.144a1 1 0 00.576.816c.946.442 1.94.774 2.961.992.356.074.724-.05.962-.325l1.42-1.644h.918l1.42 1.644a1.002 1.002 0 00.962.325 13.749 13.749 0 002.962-.992 1 1 0 00.576-.816l.197-2.144c.273-.185.537-.378.79-.58l2.039.463a.99.99 0 00.966-.306 14.26 14.26 0 001.84-2.563 1 1 0 00-.008-.992l-1.072-1.844c.112-.31.213-.634.304-.975l1.935-.851a1 1 0 00.598-.916v-2.946a.999.999 0 00-.598-.915zm-1.403 3.209l-1.787.785a1 1 0 00-.573.692 10.006 10.006 0 01-.507 1.62 1 1 0 00.06.888l1.019 1.753c-.279.445-.585.87-.918 1.276l-1.935-.44a.993.993 0 00-.884.223c-.419.368-.868.699-1.343.99a1 1 0 00-.471.76l-.188 2.041c-.47.194-.952.356-1.443.487l-1.323-1.53a1 1 0 00-.757-.346h-1.833a1 1 0 00-.757.346l-1.323 1.53c-.49-.13-.973-.293-1.443-.487l-.187-2.04a1 1 0 00-.472-.76 10.007 10.007 0 01-1.345-.99.991.991 0 00-.882-.224l-1.935.44c-.333-.405-.639-.832-.917-1.277l1.02-1.752a1 1 0 00.058-.887 10.01 10.01 0 01-.506-1.62 1.002 1.002 0 00-.585-.699l-1.86-.79V13.2l1.86-.789c.296-.126.513-.385.585-.698.122-.553.292-1.095.506-1.62a1 1 0 00-.059-.887l-1.02-1.754c.28-.444.586-.87.918-1.276l1.936.44a.993.993 0 00.883-.223c.42-.367.868-.698 1.343-.99.268-.165.443-.447.472-.76l.188-2.04c.47-.194.952-.357 1.443-.488l1.323 1.53a1 1 0 00.756.346h1.833a1 1 0 00.757-.346l1.323-1.53c.491.131.973.294 1.443.487l.188 2.04a1 1 0 00.471.761c.476.292.925.623 1.345.99a.99.99 0 00.883.224l1.935-.44c.332.405.639.83.917 1.275l-1.02 1.754a1 1 0 00-.059.887c.215.525.384 1.067.508 1.62a1 1 0 00.572.692l1.787.786v1.64z" fill="url(#gpaint1_linear)"/><path d="M53.57 27.627a4.386 4.386 0 00-5.898 1.717l-3.02 5.376a3.876 3.876 0 01-1.804 1.154l-13.632 4.078c-.294.088-.61.05-.875-.104a1.16 1.16 0 01-.551-.747 1.18 1.18 0 01.837-1.423l6.154-1.89a3.277 3.277 0 002.31-3.87 3.216 3.216 0 00-4.047-2.32l-13.21 3.963a14.766 14.766 0 00-10.006 9.265l-5.652 15.81a1 1 0 00.94 1.338L18.1 60h.002a1 1 0 00.98-.796l.69-3.32a3.8 3.8 0 012.527-2.99l26.115-8.576a3.754 3.754 0 002.116-1.754l4.831-8.997a4.387 4.387 0 00-1.79-5.94zm.06 4.932l-.032.061-4.823 8.983a1.75 1.75 0 01-.986.813l-26.124 8.58a5.783 5.783 0 00-3.86 4.521l-.516 2.48-10.752-.022L11.713 43.5a12.774 12.774 0 018.672-8.015l13.234-3.97c.318-.097.662-.058.95.109.292.168.503.45.581.779a1.296 1.296 0 01-.956 1.471l-6.128 1.883a3.192 3.192 0 00-.726 5.825c.74.433 1.628.537 2.45.287l13.63-4.078a5.876 5.876 0 002.821-1.849c.041-.048.077-.1.108-.155l3.068-5.464a2.38 2.38 0 013.146-.964h.001a2.385 2.385 0 011.066 3.2z" fill="url(#gpaint2_linear)"/></g><defs><linearGradient id="gpaint0_linear" x1="30.11" y1="9.01" x2="30.111" y2="21.016" gradientUnits="userSpaceOnUse"><stop stop-color="#DA4453"/><stop offset=".987" stop-color="#89216B"/></linearGradient><linearGradient id="gpaint1_linear" x1="30.11" y1="0" x2="30.111" y2="28.02" gradientUnits="userSpaceOnUse"><stop stop-color="#DA4453"/><stop offset=".987" stop-color="#89216B"/></linearGradient><linearGradient id="gpaint2_linear" x1="30" y1="27.105" x2="30.001" y2="60" gradientUnits="userSpaceOnUse"><stop stop-color="#DA4453"/><stop offset=".987" stop-color="#89216B"/></linearGradient><clipPath id="gclip0"><path fill="#fff" d="M0 0h60v60H0z"/></clipPath></defs></svg><svg fill="none" viewBox="0 0 60 60" id="supermarket" xmlns="http://www.w3.org/2000/svg"><path d="M60 21.896v-4.119a1.17 1.17 0 00-.125-.525L54.61 6.754V3.516A3.52 3.52 0 0051.094 0H8.906a3.52 3.52 0 00-3.515 3.516v3.238L.124 17.252a1.172 1.172 0 00-.124.525v4.119a5.3 5.3 0 004.118 5.159v24.742h-.602A3.52 3.52 0 000 55.313v3.515C0 59.475.525 60 1.172 60h57.656c.647 0 1.172-.525 1.172-1.172v-3.516a3.52 3.52 0 00-3.516-3.515h-.602V27.055A5.3 5.3 0 0060 21.895zm-5.29 2.946a2.95 2.95 0 01-2.947-2.944v-2.949h5.893v2.947a2.95 2.95 0 01-2.946 2.946zM7.286 8.203h4.313l-3.015 8.402H3.071l4.215-8.402zm45.428 0l4.215 8.402h-5.513L48.4 8.203h4.313zM49.42 21.902c-.172 3.91-5.743 3.894-5.893-.015v-2.938h5.892v2.953zm-30.603-2.953h5.893v2.947c-.162 3.91-5.732 3.906-5.893 0v-2.947zm8.237 0h5.892v2.954c-.17 3.904-5.732 3.895-5.892-.007v-2.947zm8.236 0h5.893v2.953c-.17 3.903-5.727 3.898-5.893-.003v-2.95zM45.911 8.203l3.015 8.402H43.3l-1.809-8.402h4.42zm-6.816 0l1.809 8.402h-5.695l-.603-8.402h4.489zm-6.839 0l.603 8.402h-5.718l.603-8.402h4.512zm-7.465 8.402h-5.695l1.809-8.402h4.489l-.603 8.402zm-8.092 0h-5.625l3.015-8.402h4.419l-1.81 8.402zm-.226 2.344v2.947c-.162 3.91-5.732 3.906-5.892 0v-2.947h5.892zm-4.152 8.098c1.957.488 4.143-.316 5.324-1.834 2.05 2.615 6.188 2.614 8.237 0 2.05 2.616 6.187 2.614 8.236-.001 2.051 2.616 6.187 2.616 8.237 0 1.18 1.52 3.367 2.323 5.324 1.835V45.82H12.32V27.047zM7.734 3.516c0-.647.526-1.172 1.172-1.172h42.188c.646 0 1.172.525 1.172 1.172v2.343H7.734V3.516zm-5.39 18.38v-2.947h5.893v2.947c-.163 3.91-5.732 3.906-5.893 0zm55.312 33.416v2.344H2.344v-2.344c0-.646.525-1.171 1.172-1.171h52.968c.646 0 1.172.525 1.172 1.171zM6.462 51.797V27.055a5.3 5.3 0 002.947-1.842c.173.215.364.416.569.602v21.177c0 .647.524 1.172 1.171 1.172h37.702c.647 0 1.172-.525 1.172-1.172V25.815a5.35 5.35 0 00.569-.603 5.3 5.3 0 002.946 1.843v24.742H6.462z" fill="url(#hpaint0_linear)"/><path d="M37.072 31.227h-1.985c-.53 0-.995.356-1.132.868l-1.967 7.34h-6.717l-.816-3.044h5.49c1.555-.062 1.553-2.282 0-2.343h-7.017a1.172 1.172 0 00-1.132 1.475l1.444 5.388c.137.512.602.868 1.132.868h8.515c.53 0 .995-.356 1.132-.868l1.967-7.34h1.086c1.555-.063 1.554-2.283 0-2.344z" fill="url(#hpaint1_linear)"/><defs><linearGradient id="hpaint0_linear" x1="30" y1="0" x2="30.002" y2="60" gradientUnits="userSpaceOnUse"><stop stop-color="#DA4453"/><stop offset=".987" stop-color="#89216B"/></linearGradient><linearGradient id="hpaint1_linear" x1="29.997" y1="31.227" x2="29.997" y2="41.779" gradientUnits="userSpaceOnUse"><stop stop-color="#DA4453"/><stop offset=".987" stop-color="#89216B"/></linearGradient></defs></svg><svg fill="none" viewBox="0 0 60 60" id="truck" xmlns="http://www.w3.org/2000/svg"><path d="M14 39.5c-3.309 0-6 2.69-6 6 0 3.309 2.691 6 6 6 3.31 0 6-2.691 6-6 0-3.31-2.691-6-6-6zm0 10c-2.206 0-4-1.794-4-4s1.794-4 4-4 4 1.794 4 4-1.794 4-4 4z" fill="url(#ipaint0_linear)"/><path d="M48 39.5c-3.309 0-6 2.69-6 6 0 3.309 2.691 6 6 6s6-2.691 6-6c0-3.31-2.691-6-6-6zm0 10c-2.206 0-4-1.794-4-4s1.794-4 4-4 4 1.794 4 4-1.794 4-4 4z" fill="url(#ipaint1_linear)"/><path d="M59.841 33.959l-9-14a1 1 0 00-.841-.46H39a1 1 0 00-1 1v25c0 .554.447 1 1 1h4v-2h-3v-23h9.454L58 34.795V44.5h-5v2h6c.553 0 1-.447 1-1v-11a.996.996 0 00-.159-.541z" fill="url(#ipaint2_linear)"/><path d="M44 32.5v-7h8v-2h-9a1 1 0 00-1 1v9c0 .553.447 1 1 1h15v-2H44z" fill="url(#ipaint3_linear)"/><path d="M39 12.5H1a1 1 0 00-1 1v32a1 1 0 001 1h8v-2H2v-30h36v30H19v2h20c.553 0 1-.447 1-1v-32a1 1 0 00-1-1z" fill="url(#ipaint4_linear)"/><path d="M7 40.5H1v2h6v-2z" fill="url(#ipaint5_linear)"/><path d="M38 40.5H21v2h17v-2z" fill="url(#ipaint6_linear)"/><path d="M59 40.5h-4v2h4v-2z" fill="url(#ipaint7_linear)"/><path d="M39 16.5H4v2h35v-2z" fill="url(#ipaint8_linear)"/><path d="M15 44.5h-2v2h2v-2z" fill="url(#ipaint9_linear)"/><path d="M49 44.5h-2v2h2v-2z" fill="url(#ipaint10_linear)"/><path d="M18 8.5H4v2h14v-2z" fill="url(#ipaint11_linear)"/><path d="M2 8.5H0v2h2v-2z" fill="url(#ipaint12_linear)"/><defs><linearGradient id="ipaint0_linear" x1="14" y1="39.5" x2="14.001" y2="51.5" gradientUnits="userSpaceOnUse"><stop stop-color="#DA4453"/><stop offset=".987" stop-color="#89216B"/></linearGradient><linearGradient id="ipaint1_linear" x1="48" y1="39.5" x2="48" y2="51.5" gradientUnits="userSpaceOnUse"><stop stop-color="#DA4453"/><stop offset=".987" stop-color="#89216B"/></linearGradient><linearGradient id="ipaint2_linear" x1="49" y1="19.5" x2="49.001" y2="46.5" gradientUnits="userSpaceOnUse"><stop stop-color="#DA4453"/><stop offset=".987" stop-color="#89216B"/></linearGradient><linearGradient id="ipaint3_linear" x1="50" y1="23.5" x2="50" y2="34.5" gradientUnits="userSpaceOnUse"><stop stop-color="#DA4453"/><stop offset=".987" stop-color="#89216B"/></linearGradient><linearGradient id="ipaint4_linear" x1="20" y1="12.5" x2="20.001" y2="46.5" gradientUnits="userSpaceOnUse"><stop stop-color="#DA4453"/><stop offset=".987" stop-color="#89216B"/></linearGradient><linearGradient id="ipaint5_linear" x1="4" y1="40.5" x2="4" y2="42.5" gradientUnits="userSpaceOnUse"><stop stop-color="#DA4453"/><stop offset=".987" stop-color="#89216B"/></linearGradient><linearGradient id="ipaint6_linear" x1="29.5" y1="40.5" x2="29.5" y2="42.5" gradientUnits="userSpaceOnUse"><stop stop-color="#DA4453"/><stop offset=".987" stop-color="#89216B"/></linearGradient><linearGradient id="ipaint7_linear" x1="57" y1="40.5" x2="57" y2="42.5" gradientUnits="userSpaceOnUse"><stop stop-color="#DA4453"/><stop offset=".987" stop-color="#89216B"/></linearGradient><linearGradient id="ipaint8_linear" x1="21.5" y1="16.5" x2="21.5" y2="18.5" gradientUnits="userSpaceOnUse"><stop stop-color="#DA4453"/><stop offset=".987" stop-color="#89216B"/></linearGradient><linearGradient id="ipaint9_linear" x1="14" y1="44.5" x2="14" y2="46.5" gradientUnits="userSpaceOnUse"><stop stop-color="#DA4453"/><stop offset=".987" stop-color="#89216B"/></linearGradient><linearGradient id="ipaint10_linear" x1="48" y1="44.5" x2="48" y2="46.5" gradientUnits="userSpaceOnUse"><stop stop-color="#DA4453"/><stop offset=".987" stop-color="#89216B"/></linearGradient><linearGradient id="ipaint11_linear" x1="11" y1="8.5" x2="11" y2="10.5" gradientUnits="userSpaceOnUse"><stop stop-color="#DA4453"/><stop offset=".987" stop-color="#89216B"/></linearGradient><linearGradient id="ipaint12_linear" x1="1" y1="8.5" x2="1" y2="10.5" gradientUnits="userSpaceOnUse"><stop stop-color="#DA4453"/><stop offset=".987" stop-color="#89216B"/></linearGradient></defs></svg></svg>